<svg width="240" height="336" viewBox="0 0 240 336" fill="none" xmlns="http://www.w3.org/2000/svg">
<mask id="mask0_6_172" style="mask-type:alpha" maskUnits="userSpaceOnUse" x="0" y="0" width="240" height="336">
<rect y="0.397949" width="240" height="335" rx="10" fill="#A1D2FF"/>
</mask>
<g mask="url(#mask0_6_172)">
<rect y="0.397949" width="240" height="335" rx="10" fill="#A1D2FF"/>
<path d="M35.5075 54.4248C31.5189 77.2298 24.0543 90.041 16.4182 96.8147C8.88371 103.498 1.15799 104.33 -3.68276 103.086C-32.6184 57.4866 -49.057 27.142 -55.8712 7.44529C-59.2851 -2.42247 -60.256 -9.54379 -59.2328 -14.5456C-58.7236 -17.0349 -57.7219 -18.9928 -56.2839 -20.5119C-54.8439 -22.0329 -52.9428 -23.1388 -50.5984 -23.8848C-45.892 -25.3826 -39.4653 -25.4104 -31.617 -24.4869C-23.7807 -23.5648 -14.5913 -21.7032 -4.38817 -19.4698C-1.39083 -18.8137 1.69333 -18.1256 4.85511 -17.4202C23.203 -13.3268 44.165 -8.65022 65.9453 -6.25205C78.6955 -4.84815 87.9356 -3.73247 94.3298 -2.74324C97.5274 -2.24855 100.004 -1.78693 101.847 -1.33891C103.707 -0.886633 104.867 -0.46059 105.476 -0.061306C105.78 0.138309 105.881 0.288923 105.909 0.369606C105.926 0.41848 105.937 0.493362 105.837 0.643299C105.727 0.808893 105.51 1.0172 105.148 1.26393C104.791 1.50647 104.325 1.76576 103.751 2.04376C101.723 3.02573 98.5203 4.16183 94.5441 5.5725C93.9883 5.76971 93.4173 5.97227 92.8323 6.18054C83.3329 9.56237 70.2789 14.3977 58.9715 21.9821C47.6618 29.5679 38.0401 39.9441 35.5075 54.4248Z" fill="#BFECFF" stroke="#BFECFF"/>
<path d="M200.553 289.365C205.304 266.713 213.194 254.17 221.052 247.667C228.806 241.25 236.555 240.689 241.352 242.102C268.742 288.685 284.154 319.586 290.304 339.509C293.385 349.491 294.117 356.642 292.927 361.605C292.334 364.075 291.268 365.997 289.78 367.464C288.29 368.934 286.352 369.973 283.984 370.637C279.231 371.969 272.807 371.773 264.994 370.575C257.193 369.38 248.072 367.199 237.949 364.61C234.976 363.85 231.916 363.054 228.78 362.239C210.58 357.507 189.787 352.1 168.1 348.943C155.404 347.094 146.207 345.656 139.85 344.444C136.67 343.838 134.211 343.29 132.384 342.778C130.54 342.261 129.395 341.795 128.8 341.375C128.502 341.164 128.407 341.01 128.382 340.929C128.366 340.879 128.358 340.804 128.462 340.658C128.578 340.496 128.802 340.295 129.172 340.062C129.537 339.832 130.011 339.589 130.595 339.331C132.655 338.42 135.893 337.397 139.914 336.126C140.476 335.948 141.054 335.766 141.645 335.578C151.252 332.53 164.461 328.154 176.016 320.969C187.573 313.783 197.537 303.749 200.553 289.365Z" fill="#BFECFF" stroke="#BFECFF"/>
<g filter="url(#filter0_d_6_172)">
<ellipse cx="122" cy="47.364" rx="25" ry="25.525" fill="#00E0C6"/>
<path d="M144.5 47.364C144.5 60.1296 134.378 70.389 122 70.389C109.622 70.389 99.5 60.1296 99.5 47.364C99.5 34.5984 109.622 24.339 122 24.339C134.378 24.339 144.5 34.5984 144.5 47.364Z" stroke="white" stroke-width="5"/>
</g>
<path d="M122 56.553L122 38.175" stroke="white" stroke-width="4" stroke-linecap="round"/>
<path d="M131 47.364H113" stroke="white" stroke-width="4" stroke-linecap="round"/>
<path d="M83.0874 105.365V118.456H80.6967L75.0014 110.217H74.9055V118.456H72.1378V105.365H74.5668L80.2173 113.598H80.3324V105.365H83.0874ZM85.3741 118.456V105.365H94.1951V107.647H88.1419V110.766H93.7413V113.048H88.1419V116.174H94.2207V118.456H85.3741ZM96.3956 118.456V105.365H105.217V107.647H99.1634V110.766H104.763V113.048H99.1634V116.174H105.242V118.456H96.3956ZM112.058 118.456H107.417V105.365H112.096C113.413 105.365 114.546 105.627 115.497 106.151C116.447 106.671 117.178 107.419 117.689 108.395C118.205 109.371 118.463 110.538 118.463 111.898C118.463 113.261 118.205 114.433 117.689 115.413C117.178 116.394 116.443 117.146 115.484 117.67C114.529 118.194 113.387 118.456 112.058 118.456ZM110.185 116.085H111.943C112.761 116.085 113.449 115.94 114.007 115.65C114.57 115.356 114.992 114.902 115.273 114.288C115.558 113.671 115.701 112.874 115.701 111.898C115.701 110.93 115.558 110.14 115.273 109.526C114.992 108.913 114.572 108.461 114.014 108.171C113.455 107.881 112.767 107.737 111.949 107.737H110.185V116.085ZM124.679 118.456V105.365H127.447V110.766H133.065V105.365H135.827V118.456H133.065V113.048H127.447V118.456H124.679ZM138.108 118.456V105.365H146.93V107.647H140.876V110.766H146.476V113.048H140.876V116.174H146.955V118.456H138.108ZM149.13 118.456V105.365H151.898V116.174H157.51V118.456H149.13ZM159.343 118.456V105.365H164.508C165.501 105.365 166.346 105.555 167.045 105.934C167.744 106.309 168.277 106.831 168.643 107.5C169.014 108.165 169.199 108.932 169.199 109.801C169.199 110.671 169.012 111.438 168.637 112.102C168.262 112.767 167.719 113.285 167.007 113.656C166.3 114.026 165.443 114.212 164.437 114.212H161.145V111.994H163.99C164.523 111.994 164.961 111.902 165.307 111.719C165.656 111.531 165.916 111.274 166.086 110.945C166.261 110.613 166.349 110.232 166.349 109.801C166.349 109.367 166.261 108.987 166.086 108.663C165.916 108.335 165.656 108.082 165.307 107.903C164.957 107.72 164.514 107.628 163.977 107.628H162.111V118.456H159.343Z" fill="#016170"/>
<path d="M42.2235 137.073V145.8H41.0133L36.5772 139.399H36.4963V145.8H35.1795V137.073H36.3983L40.8386 143.482H40.9196V137.073H42.2235ZM46.8631 145.932C46.2182 145.932 45.6628 145.794 45.1969 145.519C44.7338 145.24 44.3759 144.85 44.123 144.347C43.873 143.841 43.748 143.249 43.748 142.57C43.748 141.899 43.873 141.309 44.123 140.797C44.3759 140.286 44.7282 139.887 45.1799 139.6C45.6344 139.313 46.1657 139.169 46.7736 139.169C47.1429 139.169 47.5009 139.23 47.8475 139.353C48.1941 139.475 48.5051 139.667 48.7807 139.928C49.0563 140.189 49.2736 140.529 49.4327 140.946C49.5918 141.361 49.6713 141.865 49.6713 142.459V142.911H44.4682V141.956H48.4228C48.4228 141.621 48.3546 141.324 48.2182 141.066C48.0819 140.804 47.8901 140.598 47.6429 140.448C47.3986 140.297 47.1117 140.222 46.7821 140.222C46.4242 140.222 46.1117 140.31 45.8446 140.486C45.5804 140.659 45.3759 140.887 45.231 141.168C45.089 141.446 45.0179 141.749 45.0179 142.076V142.821C45.0179 143.259 45.0946 143.631 45.248 143.938C45.4043 144.245 45.6216 144.479 45.9 144.641C46.1784 144.8 46.5037 144.88 46.8759 144.88C47.1174 144.88 47.3375 144.846 47.5364 144.777C47.7353 144.706 47.9071 144.601 48.052 144.462C48.1969 144.323 48.3077 144.151 48.3844 143.946L49.5904 144.164C49.4938 144.519 49.3205 144.83 49.0705 145.097C48.8233 145.361 48.5123 145.567 48.1373 145.715C47.7651 145.86 47.3404 145.932 46.8631 145.932ZM55.5041 148.255V144.782H55.4274C55.3507 144.921 55.2399 145.08 55.095 145.259C54.9529 145.438 54.7569 145.594 54.5069 145.728C54.2569 145.861 53.9331 145.928 53.5353 145.928C53.0069 145.928 52.5353 145.793 52.1206 145.523C51.7086 145.25 51.3848 144.863 51.149 144.36C50.916 143.854 50.7995 143.247 50.7995 142.54C50.7995 141.833 50.9174 141.228 51.1532 140.725C51.3919 140.222 51.7186 139.837 52.1333 139.57C52.5481 139.303 53.0183 139.169 53.5439 139.169C53.9501 139.169 54.2768 139.238 54.524 139.374C54.774 139.507 54.9672 139.664 55.1035 139.843C55.2427 140.022 55.3507 140.179 55.4274 140.316H55.5339V139.255H56.7782V148.255H55.5041ZM53.8166 144.841C54.1831 144.841 54.4927 144.745 54.7456 144.551C55.0012 144.355 55.1944 144.084 55.3251 143.738C55.4586 143.391 55.5254 142.988 55.5254 142.527C55.5254 142.073 55.46 141.675 55.3294 141.334C55.1987 140.993 55.0069 140.728 54.7541 140.537C54.5012 140.347 54.1887 140.252 53.8166 140.252C53.4331 140.252 53.1135 140.351 52.8578 140.55C52.6021 140.749 52.4089 141.02 52.2782 141.364C52.1504 141.708 52.0865 142.096 52.0865 142.527C52.0865 142.965 52.1518 143.358 52.2825 143.708C52.4132 144.057 52.6064 144.334 52.862 144.539C53.1206 144.74 53.4387 144.841 53.8166 144.841ZM62.6376 143.086V139.255H63.916V145.8H62.6632V144.667H62.595C62.4444 145.016 62.2029 145.307 61.8706 145.54C61.541 145.77 61.1305 145.885 60.639 145.885C60.2186 145.885 59.8464 145.793 59.5225 145.608C59.2015 145.421 58.9487 145.144 58.764 144.777C58.5822 144.411 58.4913 143.958 58.4913 143.418V139.255H59.7654V143.265C59.7654 143.711 59.889 144.066 60.1362 144.33C60.3833 144.594 60.7044 144.726 61.0993 144.726C61.3379 144.726 61.5751 144.667 61.8109 144.547C62.0495 144.428 62.247 144.247 62.4032 144.006C62.5623 143.765 62.6404 143.458 62.6376 143.086ZM68.449 145.932C67.8042 145.932 67.2488 145.794 66.7828 145.519C66.3198 145.24 65.9618 144.85 65.709 144.347C65.459 143.841 65.334 143.249 65.334 142.57C65.334 141.899 65.459 141.309 65.709 140.797C65.9618 140.286 66.3141 139.887 66.7658 139.6C67.2203 139.313 67.7516 139.169 68.3596 139.169C68.7289 139.169 69.0868 139.23 69.4334 139.353C69.78 139.475 70.0911 139.667 70.3667 139.928C70.6422 140.189 70.8596 140.529 71.0186 140.946C71.1777 141.361 71.2573 141.865 71.2573 142.459V142.911H66.0542V141.956H70.0087C70.0087 141.621 69.9405 141.324 69.8042 141.066C69.6678 140.804 69.476 140.598 69.2289 140.448C68.9846 140.297 68.6976 140.222 68.3681 140.222C68.0101 140.222 67.6976 140.31 67.4306 140.486C67.1664 140.659 66.9618 140.887 66.8169 141.168C66.6749 141.446 66.6039 141.749 66.6039 142.076V142.821C66.6039 143.259 66.6806 143.631 66.834 143.938C66.9902 144.245 67.2076 144.479 67.486 144.641C67.7644 144.8 68.0897 144.88 68.4618 144.88C68.7033 144.88 68.9235 144.846 69.1223 144.777C69.3212 144.706 69.4931 144.601 69.638 144.462C69.7828 144.323 69.8936 144.151 69.9703 143.946L71.1763 144.164C71.0797 144.519 70.9064 144.83 70.6564 145.097C70.4093 145.361 70.0982 145.567 69.7232 145.715C69.351 145.86 68.9263 145.932 68.449 145.932ZM75.8468 148.255V139.255H77.0911V140.316H77.1976C77.2715 140.179 77.378 140.022 77.5172 139.843C77.6564 139.664 77.8496 139.507 78.0968 139.374C78.3439 139.238 78.6706 139.169 79.0769 139.169C79.6053 139.169 80.0769 139.303 80.4917 139.57C80.9064 139.837 81.2317 140.222 81.4675 140.725C81.7061 141.228 81.8255 141.833 81.8255 142.54C81.8255 143.247 81.7076 143.854 81.4718 144.36C81.236 144.863 80.9121 145.25 80.5002 145.523C80.0882 145.793 79.6181 145.928 79.0897 145.928C78.6919 145.928 78.3667 145.861 78.1138 145.728C77.8638 145.594 77.6678 145.438 77.5257 145.259C77.3837 145.08 77.2743 144.921 77.1976 144.782H77.1209V148.255H75.8468ZM77.0953 142.527C77.0953 142.988 77.1621 143.391 77.2956 143.738C77.4292 144.084 77.6223 144.355 77.8752 144.551C78.128 144.745 78.4377 144.841 78.8042 144.841C79.1848 144.841 79.503 144.74 79.7587 144.539C80.0144 144.334 80.2076 144.057 80.3382 143.708C80.4718 143.358 80.5385 142.965 80.5385 142.527C80.5385 142.096 80.4732 141.708 80.3425 141.364C80.2147 141.02 80.0215 140.749 79.763 140.55C79.5073 140.351 79.1877 140.252 78.8042 140.252C78.4348 140.252 78.1223 140.347 77.8667 140.537C77.6138 140.728 77.4221 140.993 77.2914 141.334C77.1607 141.675 77.0953 142.073 77.0953 142.527ZM86.0101 145.932C85.3965 145.932 84.861 145.792 84.4036 145.51C83.9462 145.229 83.5911 144.836 83.3382 144.33C83.0854 143.824 82.959 143.233 82.959 142.557C82.959 141.878 83.0854 141.284 83.3382 140.776C83.5911 140.267 83.9462 139.872 84.4036 139.591C84.861 139.31 85.3965 139.169 86.0101 139.169C86.6238 139.169 87.1593 139.31 87.6167 139.591C88.074 139.872 88.4292 140.267 88.682 140.776C88.9348 141.284 89.0613 141.878 89.0613 142.557C89.0613 143.233 88.9348 143.824 88.682 144.33C88.4292 144.836 88.074 145.229 87.6167 145.51C87.1593 145.792 86.6238 145.932 86.0101 145.932ZM86.0144 144.863C86.4121 144.863 86.7417 144.757 87.003 144.547C87.2644 144.337 87.4576 144.057 87.5826 143.708C87.7104 143.358 87.7743 142.973 87.7743 142.553C87.7743 142.135 87.7104 141.752 87.5826 141.402C87.4576 141.05 87.2644 140.767 87.003 140.554C86.7417 140.341 86.4121 140.235 86.0144 140.235C85.6138 140.235 85.2814 140.341 85.0172 140.554C84.7559 140.767 84.5613 141.05 84.4334 141.402C84.3084 141.752 84.2459 142.135 84.2459 142.553C84.2459 142.973 84.3084 143.358 84.4334 143.708C84.5613 144.057 84.7559 144.337 85.0172 144.547C85.2814 144.757 85.6138 144.863 86.0144 144.863ZM90.4835 145.8V139.255H91.715V140.294H91.7832C91.9025 139.942 92.1127 139.665 92.4139 139.463C92.7179 139.259 93.0616 139.157 93.4451 139.157C93.5247 139.157 93.6184 139.159 93.7264 139.165C93.8372 139.171 93.9238 139.178 93.9863 139.186V140.405C93.9352 140.391 93.8443 140.375 93.7136 140.358C93.5829 140.338 93.4522 140.328 93.3216 140.328C93.0204 140.328 92.752 140.392 92.5162 140.52C92.2832 140.645 92.0985 140.82 91.9622 141.044C91.8258 141.266 91.7576 141.519 91.7576 141.803V145.8H90.4835ZM95.089 145.8V139.255H96.3205V140.294H96.3887C96.508 139.942 96.7182 139.665 97.0194 139.463C97.3233 139.259 97.6671 139.157 98.0506 139.157C98.1301 139.157 98.2239 139.159 98.3319 139.165C98.4426 139.171 98.5293 139.178 98.5918 139.186V140.405C98.5407 140.391 98.4498 140.375 98.3191 140.358C98.1884 140.338 98.0577 140.328 97.927 140.328C97.6259 140.328 97.3574 140.392 97.1216 140.52C96.8887 140.645 96.704 140.82 96.5676 141.044C96.4313 141.266 96.3631 141.519 96.3631 141.803V145.8H95.089ZM102.217 145.932C101.604 145.932 101.068 145.792 100.611 145.51C100.153 145.229 99.7981 144.836 99.5453 144.33C99.2924 143.824 99.166 143.233 99.166 142.557C99.166 141.878 99.2924 141.284 99.5453 140.776C99.7981 140.267 100.153 139.872 100.611 139.591C101.068 139.31 101.604 139.169 102.217 139.169C102.831 139.169 103.366 139.31 103.824 139.591C104.281 139.872 104.636 140.267 104.889 140.776C105.142 141.284 105.268 141.878 105.268 142.557C105.268 143.233 105.142 143.824 104.889 144.33C104.636 144.836 104.281 145.229 103.824 145.51C103.366 145.792 102.831 145.932 102.217 145.932ZM102.221 144.863C102.619 144.863 102.949 144.757 103.21 144.547C103.471 144.337 103.665 144.057 103.79 143.708C103.917 143.358 103.981 142.973 103.981 142.553C103.981 142.135 103.917 141.752 103.79 141.402C103.665 141.05 103.471 140.767 103.21 140.554C102.949 140.341 102.619 140.235 102.221 140.235C101.821 140.235 101.488 140.341 101.224 140.554C100.963 140.767 100.768 141.05 100.64 141.402C100.515 141.752 100.453 142.135 100.453 142.553C100.453 142.973 100.515 143.358 100.64 143.708C100.768 144.057 100.963 144.337 101.224 144.547C101.488 144.757 101.821 144.863 102.221 144.863ZM114.285 148.255V144.782H114.209C114.132 144.921 114.021 145.08 113.876 145.259C113.734 145.438 113.538 145.594 113.288 145.728C113.038 145.861 112.714 145.928 112.317 145.928C111.788 145.928 111.317 145.793 110.902 145.523C110.49 145.25 110.166 144.863 109.93 144.36C109.697 143.854 109.581 143.247 109.581 142.54C109.581 141.833 109.699 141.228 109.934 140.725C110.173 140.222 110.5 139.837 110.915 139.57C111.329 139.303 111.8 139.169 112.325 139.169C112.731 139.169 113.058 139.238 113.305 139.374C113.555 139.507 113.748 139.664 113.885 139.843C114.024 140.022 114.132 140.179 114.209 140.316H114.315V139.255H115.559V148.255H114.285ZM112.598 144.841C112.964 144.841 113.274 144.745 113.527 144.551C113.782 144.355 113.976 144.084 114.106 143.738C114.24 143.391 114.307 142.988 114.307 142.527C114.307 142.073 114.241 141.675 114.111 141.334C113.98 140.993 113.788 140.728 113.535 140.537C113.282 140.347 112.97 140.252 112.598 140.252C112.214 140.252 111.895 140.351 111.639 140.55C111.383 140.749 111.19 141.02 111.059 141.364C110.932 141.708 110.868 142.096 110.868 142.527C110.868 142.965 110.933 143.358 111.064 143.708C111.194 144.057 111.388 144.334 111.643 144.539C111.902 144.74 112.22 144.841 112.598 144.841ZM121.419 143.086V139.255H122.697V145.8H121.444V144.667H121.376C121.226 145.016 120.984 145.307 120.652 145.54C120.322 145.77 119.912 145.885 119.42 145.885C119 145.885 118.628 145.793 118.304 145.608C117.983 145.421 117.73 145.144 117.545 144.777C117.363 144.411 117.273 143.958 117.273 143.418V139.255H118.547V143.265C118.547 143.711 118.67 144.066 118.917 144.33C119.165 144.594 119.486 144.726 119.881 144.726C120.119 144.726 120.356 144.667 120.592 144.547C120.831 144.428 121.028 144.247 121.184 144.006C121.344 143.765 121.422 143.458 121.419 143.086ZM124.409 145.8V139.255H125.683V145.8H124.409ZM125.053 138.245C124.831 138.245 124.641 138.171 124.482 138.023C124.325 137.872 124.247 137.694 124.247 137.486C124.247 137.276 124.325 137.097 124.482 136.949C124.641 136.799 124.831 136.723 125.053 136.723C125.274 136.723 125.463 136.799 125.619 136.949C125.779 137.097 125.858 137.276 125.858 137.486C125.858 137.694 125.779 137.872 125.619 138.023C125.463 138.171 125.274 138.245 125.053 138.245ZM132.302 140.853L131.148 141.057C131.099 140.909 131.023 140.769 130.917 140.635C130.815 140.502 130.676 140.392 130.5 140.307C130.324 140.222 130.104 140.179 129.839 140.179C129.479 140.179 129.177 140.26 128.936 140.422C128.694 140.581 128.574 140.787 128.574 141.04C128.574 141.259 128.655 141.435 128.817 141.569C128.979 141.702 129.24 141.811 129.601 141.897L130.64 142.135C131.243 142.274 131.692 142.489 131.987 142.779C132.282 143.069 132.43 143.445 132.43 143.908C132.43 144.3 132.317 144.649 132.089 144.956C131.865 145.26 131.551 145.499 131.148 145.672C130.747 145.846 130.282 145.932 129.754 145.932C129.021 145.932 128.423 145.776 127.96 145.463C127.497 145.148 127.213 144.701 127.108 144.121L128.339 143.934C128.416 144.255 128.574 144.497 128.812 144.662C129.051 144.824 129.362 144.905 129.746 144.905C130.163 144.905 130.497 144.819 130.747 144.645C130.997 144.469 131.122 144.255 131.122 144.002C131.122 143.797 131.045 143.625 130.892 143.486C130.741 143.347 130.51 143.242 130.197 143.171L129.089 142.928C128.479 142.789 128.027 142.567 127.734 142.263C127.444 141.959 127.3 141.574 127.3 141.108C127.3 140.722 127.407 140.384 127.623 140.094C127.839 139.804 128.138 139.578 128.518 139.417C128.899 139.252 129.335 139.169 129.827 139.169C130.534 139.169 131.091 139.323 131.497 139.63C131.903 139.934 132.172 140.341 132.302 140.853ZM138.25 148.255V144.782H138.173C138.097 144.921 137.986 145.08 137.841 145.259C137.699 145.438 137.503 145.594 137.253 145.728C137.003 145.861 136.679 145.928 136.281 145.928C135.753 145.928 135.281 145.793 134.867 145.523C134.455 145.25 134.131 144.863 133.895 144.36C133.662 143.854 133.546 143.247 133.546 142.54C133.546 141.833 133.664 141.228 133.899 140.725C134.138 140.222 134.465 139.837 134.879 139.57C135.294 139.303 135.764 139.169 136.29 139.169C136.696 139.169 137.023 139.238 137.27 139.374C137.52 139.507 137.713 139.664 137.85 139.843C137.989 140.022 138.097 140.179 138.173 140.316H138.28V139.255H139.524V148.255H138.25ZM136.563 144.841C136.929 144.841 137.239 144.745 137.492 144.551C137.747 144.355 137.941 144.084 138.071 143.738C138.205 143.391 138.271 142.988 138.271 142.527C138.271 142.073 138.206 141.675 138.075 141.334C137.945 140.993 137.753 140.728 137.5 140.537C137.247 140.347 136.935 140.252 136.563 140.252C136.179 140.252 135.86 140.351 135.604 140.55C135.348 140.749 135.155 141.02 135.024 141.364C134.896 141.708 134.833 142.096 134.833 142.527C134.833 142.965 134.898 143.358 135.029 143.708C135.159 144.057 135.352 144.334 135.608 144.539C135.867 144.74 136.185 144.841 136.563 144.841ZM145.384 143.086V139.255H146.662V145.8H145.409V144.667H145.341C145.191 145.016 144.949 145.307 144.617 145.54C144.287 145.77 143.877 145.885 143.385 145.885C142.965 145.885 142.593 145.793 142.269 145.608C141.948 145.421 141.695 145.144 141.51 144.777C141.328 144.411 141.237 143.958 141.237 143.418V139.255H142.512V143.265C142.512 143.711 142.635 144.066 142.882 144.33C143.129 144.594 143.45 144.726 143.845 144.726C144.084 144.726 144.321 144.667 144.557 144.547C144.796 144.428 144.993 144.247 145.149 144.006C145.308 143.765 145.387 143.458 145.384 143.086ZM150.279 145.945C149.864 145.945 149.489 145.868 149.154 145.715C148.819 145.559 148.553 145.333 148.357 145.037C148.164 144.742 148.067 144.38 148.067 143.951C148.067 143.581 148.138 143.277 148.28 143.039C148.422 142.8 148.614 142.611 148.856 142.472C149.097 142.333 149.367 142.228 149.665 142.157C149.964 142.086 150.268 142.032 150.577 141.995C150.969 141.949 151.287 141.912 151.532 141.884C151.776 141.853 151.954 141.803 152.064 141.735C152.175 141.667 152.231 141.556 152.231 141.402V141.372C152.231 141 152.126 140.712 151.915 140.507C151.708 140.303 151.398 140.201 150.986 140.201C150.557 140.201 150.219 140.296 149.972 140.486C149.728 140.674 149.559 140.882 149.465 141.113L148.268 140.84C148.41 140.442 148.617 140.121 148.89 139.877C149.165 139.63 149.482 139.451 149.84 139.34C150.198 139.226 150.574 139.169 150.969 139.169C151.231 139.169 151.508 139.201 151.8 139.263C152.096 139.323 152.371 139.434 152.627 139.596C152.885 139.757 153.097 139.989 153.262 140.29C153.427 140.588 153.509 140.976 153.509 141.453V145.8H152.265V144.905H152.214C152.131 145.07 152.008 145.232 151.843 145.391C151.678 145.55 151.466 145.682 151.208 145.787C150.949 145.892 150.64 145.945 150.279 145.945ZM150.556 144.922C150.908 144.922 151.209 144.853 151.459 144.713C151.712 144.574 151.904 144.392 152.035 144.168C152.168 143.941 152.235 143.698 152.235 143.439V142.596C152.189 142.641 152.101 142.684 151.971 142.723C151.843 142.76 151.697 142.793 151.532 142.821C151.367 142.847 151.206 142.871 151.05 142.894C150.894 142.914 150.763 142.931 150.658 142.945C150.411 142.976 150.185 143.029 149.981 143.103C149.779 143.176 149.617 143.283 149.495 143.422C149.376 143.559 149.316 143.74 149.316 143.968C149.316 144.283 149.432 144.522 149.665 144.684C149.898 144.843 150.195 144.922 150.556 144.922ZM155.206 145.8V139.255H156.429V140.32H156.51C156.646 139.959 156.869 139.678 157.179 139.476C157.489 139.272 157.86 139.169 158.291 139.169C158.729 139.169 159.095 139.272 159.391 139.476C159.689 139.681 159.909 139.962 160.051 140.32H160.119C160.276 139.971 160.524 139.692 160.865 139.485C161.206 139.274 161.612 139.169 162.084 139.169C162.678 139.169 163.162 139.355 163.537 139.728C163.915 140.1 164.104 140.661 164.104 141.411V145.8H162.83V141.53C162.83 141.087 162.709 140.766 162.468 140.567C162.226 140.368 161.938 140.269 161.602 140.269C161.188 140.269 160.865 140.397 160.635 140.652C160.405 140.905 160.29 141.23 160.29 141.628V145.8H159.02V141.449C159.02 141.094 158.909 140.809 158.688 140.593C158.466 140.377 158.178 140.269 157.823 140.269C157.581 140.269 157.358 140.333 157.154 140.461C156.952 140.586 156.789 140.76 156.664 140.985C156.541 141.209 156.48 141.469 156.48 141.765V145.8H155.206ZM171.808 145.932C171.164 145.932 170.608 145.794 170.142 145.519C169.679 145.24 169.321 144.85 169.068 144.347C168.818 143.841 168.693 143.249 168.693 142.57C168.693 141.899 168.818 141.309 169.068 140.797C169.321 140.286 169.673 139.887 170.125 139.6C170.58 139.313 171.111 139.169 171.719 139.169C172.088 139.169 172.446 139.23 172.793 139.353C173.139 139.475 173.45 139.667 173.726 139.928C174.002 140.189 174.219 140.529 174.378 140.946C174.537 141.361 174.617 141.865 174.617 142.459V142.911H169.414V141.956H173.368C173.368 141.621 173.3 141.324 173.164 141.066C173.027 140.804 172.835 140.598 172.588 140.448C172.344 140.297 172.057 140.222 171.727 140.222C171.369 140.222 171.057 140.31 170.79 140.486C170.526 140.659 170.321 140.887 170.176 141.168C170.034 141.446 169.963 141.749 169.963 142.076V142.821C169.963 143.259 170.04 143.631 170.193 143.938C170.35 144.245 170.567 144.479 170.845 144.641C171.124 144.8 171.449 144.88 171.821 144.88C172.063 144.88 172.283 144.846 172.482 144.777C172.681 144.706 172.852 144.601 172.997 144.462C173.142 144.323 173.253 144.151 173.33 143.946L174.536 144.164C174.439 144.519 174.266 144.83 174.016 145.097C173.769 145.361 173.458 145.567 173.083 145.715C172.71 145.86 172.286 145.932 171.808 145.932ZM180.935 140.853L179.78 141.057C179.732 140.909 179.655 140.769 179.55 140.635C179.448 140.502 179.309 140.392 179.133 140.307C178.956 140.222 178.736 140.179 178.472 140.179C178.111 140.179 177.81 140.26 177.569 140.422C177.327 140.581 177.206 140.787 177.206 141.04C177.206 141.259 177.287 141.435 177.449 141.569C177.611 141.702 177.873 141.811 178.233 141.897L179.273 142.135C179.876 142.274 180.324 142.489 180.62 142.779C180.915 143.069 181.063 143.445 181.063 143.908C181.063 144.3 180.949 144.649 180.722 144.956C180.498 145.26 180.184 145.499 179.78 145.672C179.38 145.846 178.915 145.932 178.387 145.932C177.654 145.932 177.056 145.776 176.593 145.463C176.13 145.148 175.846 144.701 175.741 144.121L176.972 143.934C177.049 144.255 177.206 144.497 177.445 144.662C177.684 144.824 177.995 144.905 178.378 144.905C178.796 144.905 179.13 144.819 179.38 144.645C179.63 144.469 179.755 144.255 179.755 144.002C179.755 143.797 179.678 143.625 179.525 143.486C179.374 143.347 179.143 143.242 178.83 143.171L177.722 142.928C177.111 142.789 176.66 142.567 176.367 142.263C176.077 141.959 175.932 141.574 175.932 141.108C175.932 140.722 176.04 140.384 176.256 140.094C176.472 139.804 176.77 139.578 177.151 139.417C177.532 139.252 177.968 139.169 178.459 139.169C179.167 139.169 179.724 139.323 180.13 139.63C180.536 139.934 180.805 140.341 180.935 140.853ZM185.519 139.255V140.277H181.944V139.255H185.519ZM182.903 137.686H184.177V143.878C184.177 144.125 184.214 144.311 184.288 144.436C184.362 144.559 184.457 144.642 184.573 144.688C184.693 144.73 184.822 144.752 184.961 144.752C185.063 144.752 185.153 144.745 185.23 144.73C185.306 144.716 185.366 144.705 185.409 144.696L185.639 145.749C185.565 145.777 185.46 145.806 185.323 145.834C185.187 145.865 185.017 145.882 184.812 145.885C184.477 145.891 184.164 145.831 183.874 145.706C183.585 145.581 183.35 145.388 183.171 145.127C182.992 144.865 182.903 144.537 182.903 144.142V137.686ZM194.524 148.255V144.782H194.447C194.37 144.921 194.259 145.08 194.115 145.259C193.972 145.438 193.776 145.594 193.526 145.728C193.276 145.861 192.953 145.928 192.555 145.928C192.026 145.928 191.555 145.793 191.14 145.523C190.728 145.25 190.404 144.863 190.169 144.36C189.936 143.854 189.819 143.247 189.819 142.54C189.819 141.833 189.937 141.228 190.173 140.725C190.411 140.222 190.738 139.837 191.153 139.57C191.568 139.303 192.038 139.169 192.563 139.169C192.97 139.169 193.296 139.238 193.544 139.374C193.794 139.507 193.987 139.664 194.123 139.843C194.262 140.022 194.37 140.179 194.447 140.316H194.553V139.255H195.798V148.255H194.524ZM192.836 144.841C193.203 144.841 193.512 144.745 193.765 144.551C194.021 144.355 194.214 144.084 194.345 143.738C194.478 143.391 194.545 142.988 194.545 142.527C194.545 142.073 194.48 141.675 194.349 141.334C194.218 140.993 194.026 140.728 193.774 140.537C193.521 140.347 193.208 140.252 192.836 140.252C192.453 140.252 192.133 140.351 191.877 140.55C191.622 140.749 191.428 141.02 191.298 141.364C191.17 141.708 191.106 142.096 191.106 142.527C191.106 142.965 191.171 143.358 191.302 143.708C191.433 144.057 191.626 144.334 191.882 144.539C192.14 144.74 192.458 144.841 192.836 144.841ZM201.657 143.086V139.255H202.936V145.8H201.683V144.667H201.615C201.464 145.016 201.222 145.307 200.89 145.54C200.561 145.77 200.15 145.885 199.659 145.885C199.238 145.885 198.866 145.793 198.542 145.608C198.221 145.421 197.968 145.144 197.784 144.777C197.602 144.411 197.511 143.958 197.511 143.418V139.255H198.785V143.265C198.785 143.711 198.909 144.066 199.156 144.33C199.403 144.594 199.724 144.726 200.119 144.726C200.357 144.726 200.595 144.667 200.83 144.547C201.069 144.428 201.267 144.247 201.423 144.006C201.582 143.765 201.66 143.458 201.657 143.086ZM204.648 145.8V139.255H205.922V145.8H204.648ZM205.291 138.245C205.069 138.245 204.879 138.171 204.72 138.023C204.564 137.872 204.486 137.694 204.486 137.486C204.486 137.276 204.564 137.097 204.72 136.949C204.879 136.799 205.069 136.723 205.291 136.723C205.513 136.723 205.702 136.799 205.858 136.949C206.017 137.097 206.096 137.276 206.096 137.486C206.096 137.694 206.017 137.872 205.858 138.023C205.702 138.171 205.513 138.245 205.291 138.245ZM25.0529 160.928C24.5245 160.928 24.0529 160.793 23.6381 160.523C23.2262 160.25 22.9023 159.863 22.6665 159.36C22.4336 158.854 22.3171 158.247 22.3171 157.54C22.3171 156.833 22.435 156.228 22.6708 155.725C22.9094 155.222 23.2362 154.837 23.6509 154.57C24.0657 154.303 24.5359 154.169 25.0614 154.169C25.4677 154.169 25.7944 154.238 26.0415 154.374C26.2915 154.507 26.4847 154.664 26.6211 154.843C26.7603 155.022 26.8683 155.179 26.945 155.316H27.0217V152.073H28.2958V160.8H27.0515V159.782H26.945C26.8683 159.921 26.7575 160.08 26.6126 160.259C26.4705 160.438 26.2745 160.594 26.0245 160.728C25.7745 160.861 25.4506 160.928 25.0529 160.928ZM25.3342 159.841C25.7006 159.841 26.0103 159.745 26.2631 159.551C26.5188 159.355 26.712 159.084 26.8427 158.738C26.9762 158.391 27.043 157.988 27.043 157.527C27.043 157.073 26.9776 156.675 26.8469 156.334C26.7163 155.993 26.5245 155.728 26.2717 155.537C26.0188 155.347 25.7063 155.252 25.3342 155.252C24.9506 155.252 24.631 155.351 24.3754 155.55C24.1197 155.749 23.9265 156.02 23.7958 156.364C23.668 156.708 23.604 157.096 23.604 157.527C23.604 157.965 23.6694 158.358 23.8001 158.708C23.9308 159.057 24.1239 159.334 24.3796 159.539C24.6381 159.74 24.9563 159.841 25.3342 159.841ZM32.8714 160.932C32.2578 160.932 31.7223 160.792 31.2649 160.51C30.8075 160.229 30.4524 159.836 30.1996 159.33C29.9467 158.824 29.8203 158.233 29.8203 157.557C29.8203 156.878 29.9467 156.284 30.1996 155.776C30.4524 155.267 30.8075 154.872 31.2649 154.591C31.7223 154.31 32.2578 154.169 32.8714 154.169C33.4851 154.169 34.0206 154.31 34.478 154.591C34.9354 154.872 35.2905 155.267 35.5433 155.776C35.7962 156.284 35.9226 156.878 35.9226 157.557C35.9226 158.233 35.7962 158.824 35.5433 159.33C35.2905 159.836 34.9354 160.229 34.478 160.51C34.0206 160.792 33.4851 160.932 32.8714 160.932ZM32.8757 159.863C33.2734 159.863 33.603 159.757 33.8643 159.547C34.1257 159.337 34.3189 159.057 34.4439 158.708C34.5717 158.358 34.6357 157.973 34.6357 157.553C34.6357 157.135 34.5717 156.752 34.4439 156.402C34.3189 156.05 34.1257 155.767 33.8643 155.554C33.603 155.341 33.2734 155.235 32.8757 155.235C32.4751 155.235 32.1428 155.341 31.8786 155.554C31.6172 155.767 31.4226 156.05 31.2947 156.402C31.1697 156.752 31.1072 157.135 31.1072 157.553C31.1072 157.973 31.1697 158.358 31.2947 158.708C31.4226 159.057 31.6172 159.337 31.8786 159.547C32.1428 159.757 32.4751 159.863 32.8757 159.863ZM38.619 152.073V160.8H37.3448V152.073H38.619ZM43.0902 160.932C42.4766 160.932 41.9411 160.792 41.4837 160.51C41.0263 160.229 40.6712 159.836 40.4183 159.33C40.1655 158.824 40.0391 158.233 40.0391 157.557C40.0391 156.878 40.1655 156.284 40.4183 155.776C40.6712 155.267 41.0263 154.872 41.4837 154.591C41.9411 154.31 42.4766 154.169 43.0902 154.169C43.7038 154.169 44.2393 154.31 44.6967 154.591C45.1541 154.872 45.5092 155.267 45.7621 155.776C46.0149 156.284 46.1413 156.878 46.1413 157.557C46.1413 158.233 46.0149 158.824 45.7621 159.33C45.5092 159.836 45.1541 160.229 44.6967 160.51C44.2393 160.792 43.7038 160.932 43.0902 160.932ZM43.0945 159.863C43.4922 159.863 43.8217 159.757 44.0831 159.547C44.3445 159.337 44.5376 159.057 44.6626 158.708C44.7905 158.358 44.8544 157.973 44.8544 157.553C44.8544 157.135 44.7905 156.752 44.6626 156.402C44.5376 156.05 44.3445 155.767 44.0831 155.554C43.8217 155.341 43.4922 155.235 43.0945 155.235C42.6939 155.235 42.3615 155.341 42.0973 155.554C41.8359 155.767 41.6413 156.05 41.5135 156.402C41.3885 156.752 41.326 157.135 41.326 157.553C41.326 157.973 41.3885 158.358 41.5135 158.708C41.6413 159.057 41.8359 159.337 42.0973 159.547C42.3615 159.757 42.6939 159.863 43.0945 159.863ZM47.5636 160.8V154.255H48.7951V155.294H48.8633C48.9826 154.942 49.1928 154.665 49.494 154.463C49.7979 154.259 50.1417 154.157 50.5252 154.157C50.6048 154.157 50.6985 154.159 50.8065 154.165C50.9173 154.171 51.0039 154.178 51.0664 154.186V155.405C51.0153 155.391 50.9244 155.375 50.7937 155.358C50.663 155.338 50.5323 155.328 50.4016 155.328C50.1005 155.328 49.832 155.392 49.5962 155.52C49.3633 155.645 49.1786 155.82 49.0423 156.044C48.9059 156.266 48.8377 156.519 48.8377 156.803V160.8H47.5636ZM54.7557 160.932C54.1108 160.932 53.5554 160.794 53.0895 160.519C52.6264 160.24 52.2685 159.85 52.0156 159.347C51.7656 158.841 51.6406 158.249 51.6406 157.57C51.6406 156.899 51.7656 156.309 52.0156 155.797C52.2685 155.286 52.6207 154.887 53.0724 154.6C53.527 154.313 54.0582 154.169 54.6662 154.169C55.0355 154.169 55.3935 154.23 55.7401 154.353C56.0866 154.475 56.3977 154.667 56.6733 154.928C56.9489 155.189 57.1662 155.529 57.3253 155.946C57.4844 156.361 57.5639 156.865 57.5639 157.459V157.911H52.3608V156.956H56.3153C56.3153 156.621 56.2472 156.324 56.1108 156.066C55.9744 155.804 55.7827 155.598 55.5355 155.448C55.2912 155.297 55.0043 155.222 54.6747 155.222C54.3168 155.222 54.0043 155.31 53.7372 155.486C53.473 155.659 53.2685 155.887 53.1236 156.168C52.9815 156.446 52.9105 156.749 52.9105 157.076V157.821C52.9105 158.259 52.9872 158.631 53.1406 158.938C53.2969 159.245 53.5142 159.479 53.7926 159.641C54.071 159.8 54.3963 159.88 54.7685 159.88C55.0099 159.88 55.2301 159.846 55.429 159.777C55.6278 159.706 55.7997 159.601 55.9446 159.462C56.0895 159.323 56.2003 159.151 56.277 158.946L57.483 159.164C57.3864 159.519 57.2131 159.83 56.9631 160.097C56.7159 160.361 56.4048 160.567 56.0298 160.715C55.6577 160.86 55.233 160.932 54.7557 160.932ZM58.9776 160.8V154.255H60.2006V155.32H60.2816C60.418 154.959 60.641 154.678 60.9506 154.476C61.2603 154.272 61.631 154.169 62.0629 154.169C62.5004 154.169 62.8668 154.272 63.1623 154.476C63.4606 154.681 63.6808 154.962 63.8228 155.32H63.891C64.0472 154.971 64.2958 154.692 64.6367 154.485C64.9776 154.274 65.3839 154.169 65.8555 154.169C66.4492 154.169 66.9336 154.355 67.3086 154.728C67.6864 155.1 67.8754 155.661 67.8754 156.411V160.8H66.6012V156.53C66.6012 156.087 66.4805 155.766 66.239 155.567C65.9975 155.368 65.7092 155.269 65.3739 155.269C64.9592 155.269 64.6367 155.397 64.4066 155.652C64.1765 155.905 64.0614 156.23 64.0614 156.628V160.8H62.7915V156.449C62.7915 156.094 62.6808 155.809 62.4592 155.593C62.2376 155.377 61.9492 155.269 61.5941 155.269C61.3526 155.269 61.1296 155.333 60.9251 155.461C60.7234 155.586 60.56 155.76 60.435 155.985C60.3129 156.209 60.2518 156.469 60.2518 156.765V160.8H58.9776ZM72.7589 160.8V154.255H74.033V160.8H72.7589ZM73.4023 153.245C73.1808 153.245 72.9904 153.171 72.8313 153.023C72.6751 152.872 72.5969 152.694 72.5969 152.486C72.5969 152.276 72.6751 152.097 72.8313 151.949C72.9904 151.799 73.1808 151.723 73.4023 151.723C73.6239 151.723 73.8129 151.799 73.9691 151.949C74.1282 152.097 74.2077 152.276 74.2077 152.486C74.2077 152.694 74.1282 152.872 73.9691 153.023C73.8129 153.171 73.6239 153.245 73.4023 153.245ZM75.7472 163.255V154.255H76.9915V155.316H77.098C77.1719 155.179 77.2784 155.022 77.4176 154.843C77.5568 154.664 77.75 154.507 77.9972 154.374C78.2443 154.238 78.571 154.169 78.9773 154.169C79.5057 154.169 79.9773 154.303 80.392 154.57C80.8068 154.837 81.1321 155.222 81.3679 155.725C81.6065 156.228 81.7259 156.833 81.7259 157.54C81.7259 158.247 81.608 158.854 81.3722 159.36C81.1364 159.863 80.8125 160.25 80.4006 160.523C79.9886 160.793 79.5185 160.928 78.9901 160.928C78.5923 160.928 78.267 160.861 78.0142 160.728C77.7642 160.594 77.5682 160.438 77.4261 160.259C77.2841 160.08 77.1747 159.921 77.098 159.782H77.0213V163.255H75.7472ZM76.9957 157.527C76.9957 157.988 77.0625 158.391 77.196 158.738C77.3295 159.084 77.5227 159.355 77.7756 159.551C78.0284 159.745 78.3381 159.841 78.7045 159.841C79.0852 159.841 79.4034 159.74 79.6591 159.539C79.9148 159.334 80.108 159.057 80.2386 158.708C80.3722 158.358 80.4389 157.965 80.4389 157.527C80.4389 157.096 80.3736 156.708 80.2429 156.364C80.1151 156.02 79.9219 155.749 79.6634 155.55C79.4077 155.351 79.0881 155.252 78.7045 155.252C78.3352 155.252 78.0227 155.347 77.767 155.537C77.5142 155.728 77.3224 155.993 77.1918 156.334C77.0611 156.675 76.9957 157.073 76.9957 157.527ZM88.0582 155.853L86.9034 156.057C86.8551 155.909 86.7784 155.769 86.6733 155.635C86.571 155.502 86.4318 155.392 86.2557 155.307C86.0795 155.222 85.8594 155.179 85.5952 155.179C85.2344 155.179 84.9332 155.26 84.6918 155.422C84.4503 155.581 84.3295 155.787 84.3295 156.04C84.3295 156.259 84.4105 156.435 84.5724 156.569C84.7344 156.702 84.9957 156.811 85.3565 156.897L86.3963 157.135C86.9986 157.274 87.4474 157.489 87.7429 157.779C88.0384 158.069 88.1861 158.445 88.1861 158.908C88.1861 159.3 88.0724 159.649 87.8452 159.956C87.6207 160.26 87.3068 160.499 86.9034 160.672C86.5028 160.846 86.0384 160.932 85.5099 160.932C84.777 160.932 84.179 160.776 83.7159 160.463C83.2528 160.148 82.9688 159.701 82.8636 159.121L84.0952 158.934C84.1719 159.255 84.3295 159.497 84.5682 159.662C84.8068 159.824 85.1179 159.905 85.5014 159.905C85.919 159.905 86.2528 159.819 86.5028 159.645C86.7528 159.469 86.8778 159.255 86.8778 159.002C86.8778 158.797 86.8011 158.625 86.6477 158.486C86.4972 158.347 86.2656 158.242 85.9531 158.171L84.8452 157.928C84.2344 157.789 83.7827 157.567 83.4901 157.263C83.2003 156.959 83.0554 156.574 83.0554 156.108C83.0554 155.722 83.1634 155.384 83.3793 155.094C83.5952 154.804 83.8935 154.578 84.2741 154.417C84.6548 154.252 85.0909 154.169 85.5824 154.169C86.2898 154.169 86.8466 154.323 87.2528 154.63C87.6591 154.934 87.9276 155.341 88.0582 155.853ZM93.7333 158.086V154.255H95.0117V160.8H93.7589V159.667H93.6907C93.5401 160.016 93.2987 160.307 92.9663 160.54C92.6367 160.77 92.2262 160.885 91.7347 160.885C91.3143 160.885 90.9421 160.793 90.6183 160.608C90.2972 160.421 90.0444 160.144 89.8597 159.777C89.6779 159.411 89.587 158.958 89.587 158.418V154.255H90.8612V158.265C90.8612 158.711 90.9847 159.066 91.2319 159.33C91.479 159.594 91.8001 159.726 92.195 159.726C92.4336 159.726 92.6708 159.667 92.9066 159.547C93.1452 159.428 93.3427 159.247 93.4989 159.006C93.658 158.765 93.7362 158.458 93.7333 158.086ZM96.7237 160.8V154.255H97.9467V155.32H98.0277C98.1641 154.959 98.3871 154.678 98.6967 154.476C99.0064 154.272 99.3771 154.169 99.8089 154.169C100.246 154.169 100.613 154.272 100.908 154.476C101.207 154.681 101.427 154.962 101.569 155.32H101.637C101.793 154.971 102.042 154.692 102.383 154.485C102.724 154.274 103.13 154.169 103.602 154.169C104.195 154.169 104.68 154.355 105.055 154.728C105.433 155.1 105.621 155.661 105.621 156.411V160.8H104.347V156.53C104.347 156.087 104.227 155.766 103.985 155.567C103.744 155.368 103.455 155.269 103.12 155.269C102.705 155.269 102.383 155.397 102.153 155.652C101.923 155.905 101.808 156.23 101.808 156.628V160.8H100.538V156.449C100.538 156.094 100.427 155.809 100.205 155.593C99.9837 155.377 99.6953 155.269 99.3402 155.269C99.0987 155.269 98.8757 155.333 98.6712 155.461C98.4695 155.586 98.3061 155.76 98.1811 155.985C98.0589 156.209 97.9979 156.469 97.9979 156.765V160.8H96.7237ZM114.924 163.255V159.782H114.847C114.771 159.921 114.66 160.08 114.515 160.259C114.373 160.438 114.177 160.594 113.927 160.728C113.677 160.861 113.353 160.928 112.955 160.928C112.427 160.928 111.955 160.793 111.54 160.523C111.129 160.25 110.805 159.863 110.569 159.36C110.336 158.854 110.219 158.247 110.219 157.54C110.219 156.833 110.337 156.228 110.573 155.725C110.812 155.222 111.138 154.837 111.553 154.57C111.968 154.303 112.438 154.169 112.964 154.169C113.37 154.169 113.697 154.238 113.944 154.374C114.194 154.507 114.387 154.664 114.523 154.843C114.663 155.022 114.771 155.179 114.847 155.316H114.954V154.255H116.198V163.255H114.924ZM113.237 159.841C113.603 159.841 113.913 159.745 114.165 159.551C114.421 159.355 114.614 159.084 114.745 158.738C114.879 158.391 114.945 157.988 114.945 157.527C114.945 157.073 114.88 156.675 114.749 156.334C114.619 155.993 114.427 155.728 114.174 155.537C113.921 155.347 113.609 155.252 113.237 155.252C112.853 155.252 112.533 155.351 112.278 155.55C112.022 155.749 111.829 156.02 111.698 156.364C111.57 156.708 111.506 157.096 111.506 157.527C111.506 157.965 111.572 158.358 111.702 158.708C111.833 159.057 112.026 159.334 112.282 159.539C112.54 159.74 112.859 159.841 113.237 159.841ZM122.058 158.086V154.255H123.336V160.8H122.083V159.667H122.015C121.864 160.016 121.623 160.307 121.29 160.54C120.961 160.77 120.55 160.885 120.059 160.885C119.638 160.885 119.266 160.793 118.942 160.608C118.621 160.421 118.369 160.144 118.184 159.777C118.002 159.411 117.911 158.958 117.911 158.418V154.255H119.185V158.265C119.185 158.711 119.309 159.066 119.556 159.33C119.803 159.594 120.124 159.726 120.519 159.726C120.758 159.726 120.995 159.667 121.231 159.547C121.469 159.428 121.667 159.247 121.823 159.006C121.982 158.765 122.06 158.458 122.058 158.086ZM125.048 160.8V154.255H126.322V160.8H125.048ZM125.691 153.245C125.47 153.245 125.279 153.171 125.12 153.023C124.964 152.872 124.886 152.694 124.886 152.486C124.886 152.276 124.964 152.097 125.12 151.949C125.279 151.799 125.47 151.723 125.691 151.723C125.913 151.723 126.102 151.799 126.258 151.949C126.417 152.097 126.497 152.276 126.497 152.486C126.497 152.694 126.417 152.872 126.258 153.023C126.102 153.171 125.913 153.245 125.691 153.245ZM129.941 160.945C129.526 160.945 129.151 160.868 128.816 160.715C128.481 160.559 128.215 160.333 128.019 160.037C127.826 159.742 127.729 159.38 127.729 158.951C127.729 158.581 127.8 158.277 127.942 158.039C128.085 157.8 128.276 157.611 128.518 157.472C128.759 157.333 129.029 157.228 129.327 157.157C129.626 157.086 129.93 157.032 130.239 156.995C130.631 156.949 130.95 156.912 131.194 156.884C131.438 156.853 131.616 156.803 131.727 156.735C131.837 156.667 131.893 156.556 131.893 156.402V156.372C131.893 156 131.788 155.712 131.577 155.507C131.37 155.303 131.06 155.201 130.648 155.201C130.219 155.201 129.881 155.296 129.634 155.486C129.39 155.674 129.221 155.882 129.127 156.113L127.93 155.84C128.072 155.442 128.279 155.121 128.552 154.877C128.827 154.63 129.144 154.451 129.502 154.34C129.86 154.226 130.237 154.169 130.631 154.169C130.893 154.169 131.17 154.201 131.462 154.263C131.758 154.323 132.033 154.434 132.289 154.596C132.548 154.757 132.759 154.989 132.924 155.29C133.089 155.588 133.171 155.976 133.171 156.453V160.8H131.927V159.905H131.876C131.793 160.07 131.67 160.232 131.505 160.391C131.34 160.55 131.129 160.682 130.87 160.787C130.612 160.892 130.302 160.945 129.941 160.945ZM130.218 159.922C130.57 159.922 130.871 159.853 131.121 159.713C131.374 159.574 131.566 159.392 131.697 159.168C131.83 158.941 131.897 158.698 131.897 158.439V157.596C131.852 157.641 131.763 157.684 131.633 157.723C131.505 157.76 131.359 157.793 131.194 157.821C131.029 157.847 130.869 157.871 130.712 157.894C130.556 157.914 130.425 157.931 130.32 157.945C130.073 157.976 129.847 158.029 129.643 158.103C129.441 158.176 129.279 158.283 129.157 158.422C129.038 158.559 128.978 158.74 128.978 158.968C128.978 159.283 129.094 159.522 129.327 159.684C129.56 159.843 129.857 159.922 130.218 159.922ZM140.494 160.928C139.966 160.928 139.494 160.793 139.08 160.523C138.668 160.25 138.344 159.863 138.108 159.36C137.875 158.854 137.759 158.247 137.759 157.54C137.759 156.833 137.876 156.228 138.112 155.725C138.351 155.222 138.678 154.837 139.092 154.57C139.507 154.303 139.977 154.169 140.503 154.169C140.909 154.169 141.236 154.238 141.483 154.374C141.733 154.507 141.926 154.664 142.062 154.843C142.202 155.022 142.31 155.179 142.386 155.316H142.463V152.073H143.737V160.8H142.493V159.782H142.386C142.31 159.921 142.199 160.08 142.054 160.259C141.912 160.438 141.716 160.594 141.466 160.728C141.216 160.861 140.892 160.928 140.494 160.928ZM140.776 159.841C141.142 159.841 141.452 159.745 141.705 159.551C141.96 159.355 142.153 159.084 142.284 158.738C142.418 158.391 142.484 157.988 142.484 157.527C142.484 157.073 142.419 156.675 142.288 156.334C142.158 155.993 141.966 155.728 141.713 155.537C141.46 155.347 141.148 155.252 140.776 155.252C140.392 155.252 140.072 155.351 139.817 155.55C139.561 155.749 139.368 156.02 139.237 156.364C139.109 156.708 139.045 157.096 139.045 157.527C139.045 157.965 139.111 158.358 139.241 158.708C139.372 159.057 139.565 159.334 139.821 159.539C140.08 159.74 140.398 159.841 140.776 159.841ZM148.313 160.932C147.699 160.932 147.164 160.792 146.706 160.51C146.249 160.229 145.894 159.836 145.641 159.33C145.388 158.824 145.262 158.233 145.262 157.557C145.262 156.878 145.388 156.284 145.641 155.776C145.894 155.267 146.249 154.872 146.706 154.591C147.164 154.31 147.699 154.169 148.313 154.169C148.926 154.169 149.462 154.31 149.919 154.591C150.377 154.872 150.732 155.267 150.985 155.776C151.238 156.284 151.364 156.878 151.364 157.557C151.364 158.233 151.238 158.824 150.985 159.33C150.732 159.836 150.377 160.229 149.919 160.51C149.462 160.792 148.926 160.932 148.313 160.932ZM148.317 159.863C148.715 159.863 149.044 159.757 149.306 159.547C149.567 159.337 149.76 159.057 149.885 158.708C150.013 158.358 150.077 157.973 150.077 157.553C150.077 157.135 150.013 156.752 149.885 156.402C149.76 156.05 149.567 155.767 149.306 155.554C149.044 155.341 148.715 155.235 148.317 155.235C147.917 155.235 147.584 155.341 147.32 155.554C147.059 155.767 146.864 156.05 146.736 156.402C146.611 156.752 146.549 157.135 146.549 157.553C146.549 157.973 146.611 158.358 146.736 158.708C146.864 159.057 147.059 159.337 147.32 159.547C147.584 159.757 147.917 159.863 148.317 159.863ZM154.06 152.073V160.8H152.786V152.073H154.06ZM158.532 160.932C157.918 160.932 157.382 160.792 156.925 160.51C156.468 160.229 156.113 159.836 155.86 159.33C155.607 158.824 155.48 158.233 155.48 157.557C155.48 156.878 155.607 156.284 155.86 155.776C156.113 155.267 156.468 154.872 156.925 154.591C157.382 154.31 157.918 154.169 158.532 154.169C159.145 154.169 159.681 154.31 160.138 154.591C160.596 154.872 160.951 155.267 161.203 155.776C161.456 156.284 161.583 156.878 161.583 157.557C161.583 158.233 161.456 158.824 161.203 159.33C160.951 159.836 160.596 160.229 160.138 160.51C159.681 160.792 159.145 160.932 158.532 160.932ZM158.536 159.863C158.934 159.863 159.263 159.757 159.525 159.547C159.786 159.337 159.979 159.057 160.104 158.708C160.232 158.358 160.296 157.973 160.296 157.553C160.296 157.135 160.232 156.752 160.104 156.402C159.979 156.05 159.786 155.767 159.525 155.554C159.263 155.341 158.934 155.235 158.536 155.235C158.135 155.235 157.803 155.341 157.539 155.554C157.277 155.767 157.083 156.05 156.955 156.402C156.83 156.752 156.767 157.135 156.767 157.553C156.767 157.973 156.83 158.358 156.955 158.708C157.083 159.057 157.277 159.337 157.539 159.547C157.803 159.757 158.135 159.863 158.536 159.863ZM163.005 160.8V154.255H164.237V155.294H164.305C164.424 154.942 164.634 154.665 164.935 154.463C165.239 154.259 165.583 154.157 165.967 154.157C166.046 154.157 166.14 154.159 166.248 154.165C166.359 154.171 166.445 154.178 166.508 154.186V155.405C166.457 155.391 166.366 155.375 166.235 155.358C166.104 155.338 165.974 155.328 165.843 155.328C165.542 155.328 165.273 155.392 165.038 155.52C164.805 155.645 164.62 155.82 164.484 156.044C164.347 156.266 164.279 156.519 164.279 156.803V160.8H163.005ZM175.691 155.853L174.536 156.057C174.488 155.909 174.411 155.769 174.306 155.635C174.204 155.502 174.065 155.392 173.888 155.307C173.712 155.222 173.492 155.179 173.228 155.179C172.867 155.179 172.566 155.26 172.325 155.422C172.083 155.581 171.962 155.787 171.962 156.04C171.962 156.259 172.043 156.435 172.205 156.569C172.367 156.702 172.629 156.811 172.989 156.897L174.029 157.135C174.631 157.274 175.08 157.489 175.376 157.779C175.671 158.069 175.819 158.445 175.819 158.908C175.819 159.3 175.705 159.649 175.478 159.956C175.254 160.26 174.94 160.499 174.536 160.672C174.136 160.846 173.671 160.932 173.143 160.932C172.41 160.932 171.812 160.776 171.349 160.463C170.886 160.148 170.602 159.701 170.496 159.121L171.728 158.934C171.805 159.255 171.962 159.497 172.201 159.662C172.44 159.824 172.751 159.905 173.134 159.905C173.552 159.905 173.886 159.819 174.136 159.645C174.386 159.469 174.511 159.255 174.511 159.002C174.511 158.797 174.434 158.625 174.281 158.486C174.13 158.347 173.898 158.242 173.586 158.171L172.478 157.928C171.867 157.789 171.415 157.567 171.123 157.263C170.833 156.959 170.688 156.574 170.688 156.108C170.688 155.722 170.796 155.384 171.012 155.094C171.228 154.804 171.526 154.578 171.907 154.417C172.288 154.252 172.724 154.169 173.215 154.169C173.923 154.169 174.479 154.323 174.886 154.63C175.292 154.934 175.56 155.341 175.691 155.853ZM177.22 160.8V154.255H178.494V160.8H177.22ZM177.863 153.245C177.642 153.245 177.451 153.171 177.292 153.023C177.136 152.872 177.058 152.694 177.058 152.486C177.058 152.276 177.136 152.097 177.292 151.949C177.451 151.799 177.642 151.723 177.863 151.723C178.085 151.723 178.274 151.799 178.43 151.949C178.589 152.097 178.669 152.276 178.669 152.486C178.669 152.694 178.589 152.872 178.43 153.023C178.274 153.171 178.085 153.245 177.863 153.245ZM183.263 154.255V155.277H179.688V154.255H183.263ZM180.647 152.686H181.921V158.878C181.921 159.125 181.958 159.311 182.032 159.436C182.106 159.559 182.201 159.642 182.317 159.688C182.437 159.73 182.566 159.752 182.705 159.752C182.808 159.752 182.897 159.745 182.974 159.73C183.05 159.716 183.11 159.705 183.153 159.696L183.383 160.749C183.309 160.777 183.204 160.806 183.067 160.834C182.931 160.865 182.761 160.882 182.556 160.885C182.221 160.891 181.908 160.831 181.619 160.706C181.329 160.581 181.094 160.388 180.915 160.127C180.737 159.865 180.647 159.537 180.647 159.142V152.686ZM189.754 160.945C189.339 160.945 188.964 160.868 188.629 160.715C188.293 160.559 188.028 160.333 187.832 160.037C187.638 159.742 187.542 159.38 187.542 158.951C187.542 158.581 187.613 158.277 187.755 158.039C187.897 157.8 188.089 157.611 188.33 157.472C188.572 157.333 188.842 157.228 189.14 157.157C189.438 157.086 189.742 157.032 190.052 156.995C190.444 156.949 190.762 156.912 191.006 156.884C191.251 156.853 191.428 156.803 191.539 156.735C191.65 156.667 191.705 156.556 191.705 156.402V156.372C191.705 156 191.6 155.712 191.39 155.507C191.183 155.303 190.873 155.201 190.461 155.201C190.032 155.201 189.694 155.296 189.447 155.486C189.202 155.674 189.033 155.882 188.94 156.113L187.742 155.84C187.884 155.442 188.092 155.121 188.364 154.877C188.64 154.63 188.957 154.451 189.315 154.34C189.673 154.226 190.049 154.169 190.444 154.169C190.705 154.169 190.982 154.201 191.275 154.263C191.57 154.323 191.846 154.434 192.102 154.596C192.36 154.757 192.572 154.989 192.737 155.29C192.901 155.588 192.984 155.976 192.984 156.453V160.8H191.739V159.905H191.688C191.606 160.07 191.482 160.232 191.317 160.391C191.153 160.55 190.941 160.682 190.683 160.787C190.424 160.892 190.114 160.945 189.754 160.945ZM190.031 159.922C190.383 159.922 190.684 159.853 190.934 159.713C191.187 159.574 191.379 159.392 191.509 159.168C191.643 158.941 191.71 158.698 191.71 158.439V157.596C191.664 157.641 191.576 157.684 191.445 157.723C191.317 157.76 191.171 157.793 191.006 157.821C190.842 157.847 190.681 157.871 190.525 157.894C190.369 157.914 190.238 157.931 190.133 157.945C189.886 157.976 189.66 158.029 189.455 158.103C189.254 158.176 189.092 158.283 188.969 158.422C188.85 158.559 188.79 158.74 188.79 158.968C188.79 159.283 188.907 159.522 189.14 159.684C189.373 159.843 189.67 159.922 190.031 159.922ZM194.681 160.8V154.255H195.904V155.32H195.985C196.121 154.959 196.344 154.678 196.654 154.476C196.963 154.272 197.334 154.169 197.766 154.169C198.203 154.169 198.57 154.272 198.865 154.476C199.164 154.681 199.384 154.962 199.526 155.32H199.594C199.75 154.971 199.999 154.692 200.34 154.485C200.681 154.274 201.087 154.169 201.559 154.169C202.152 154.169 202.637 154.355 203.012 154.728C203.39 155.1 203.578 155.661 203.578 156.411V160.8H202.304V156.53C202.304 156.087 202.184 155.766 201.942 155.567C201.701 155.368 201.412 155.269 201.077 155.269C200.662 155.269 200.34 155.397 200.11 155.652C199.88 155.905 199.765 156.23 199.765 156.628V160.8H198.495V156.449C198.495 156.094 198.384 155.809 198.162 155.593C197.941 155.377 197.652 155.269 197.297 155.269C197.056 155.269 196.833 155.333 196.628 155.461C196.426 155.586 196.263 155.76 196.138 155.985C196.016 156.209 195.955 156.469 195.955 156.765V160.8H194.681ZM208.107 160.932C207.462 160.932 206.907 160.794 206.441 160.519C205.978 160.24 205.62 159.85 205.367 159.347C205.117 158.841 204.992 158.249 204.992 157.57C204.992 156.899 205.117 156.309 205.367 155.797C205.62 155.286 205.972 154.887 206.424 154.6C206.879 154.313 207.41 154.169 208.018 154.169C208.387 154.169 208.745 154.23 209.092 154.353C209.438 154.475 209.749 154.667 210.025 154.928C210.3 155.189 210.518 155.529 210.677 155.946C210.836 156.361 210.915 156.865 210.915 157.459V157.911H205.712V156.956H209.667C209.667 156.621 209.599 156.324 209.462 156.066C209.326 155.804 209.134 155.598 208.887 155.448C208.643 155.297 208.356 155.222 208.026 155.222C207.668 155.222 207.356 155.31 207.089 155.486C206.825 155.659 206.62 155.887 206.475 156.168C206.333 156.446 206.262 156.749 206.262 157.076V157.821C206.262 158.259 206.339 158.631 206.492 158.938C206.648 159.245 206.866 159.479 207.144 159.641C207.423 159.8 207.748 159.88 208.12 159.88C208.362 159.88 208.582 159.846 208.781 159.777C208.979 159.706 209.151 159.601 209.296 159.462C209.441 159.323 209.552 159.151 209.629 158.946L210.835 159.164C210.738 159.519 210.565 159.83 210.315 160.097C210.067 160.361 209.756 160.567 209.381 160.715C209.009 160.86 208.585 160.932 208.107 160.932ZM215.385 154.255V155.277H211.809V154.255H215.385ZM212.768 152.686H214.042V158.878C214.042 159.125 214.079 159.311 214.153 159.436C214.227 159.559 214.322 159.642 214.439 159.688C214.558 159.73 214.687 159.752 214.826 159.752C214.929 159.752 215.018 159.745 215.095 159.73C215.172 159.716 215.231 159.705 215.274 159.696L215.504 160.749C215.43 160.777 215.325 160.806 215.189 160.834C215.052 160.865 214.882 160.882 214.677 160.885C214.342 160.891 214.029 160.831 213.74 160.706C213.45 160.581 213.216 160.388 213.037 160.127C212.858 159.865 212.768 159.537 212.768 159.142V152.686ZM218.452 159.607L218.388 160.071C218.345 160.412 218.273 160.767 218.17 161.137C218.071 161.509 217.967 161.854 217.859 162.172C217.754 162.49 217.668 162.743 217.599 162.931H216.696C216.733 162.755 216.784 162.516 216.849 162.215C216.915 161.917 216.979 161.583 217.041 161.213C217.104 160.844 217.151 160.468 217.182 160.084L217.224 159.607H218.452ZM51.0765 175.932C50.443 175.932 49.8975 175.789 49.4402 175.502C48.9856 175.212 48.6362 174.813 48.3919 174.304C48.1475 173.796 48.0254 173.213 48.0254 172.557C48.0254 171.892 48.1504 171.306 48.4004 170.797C48.6504 170.286 49.0027 169.887 49.4572 169.6C49.9118 169.313 50.4473 169.169 51.0637 169.169C51.5609 169.169 52.0041 169.262 52.3933 169.446C52.7825 169.628 53.0964 169.884 53.335 170.213C53.5765 170.543 53.72 170.928 53.7654 171.368H52.5254C52.4572 171.061 52.301 170.797 52.0566 170.576C51.8152 170.354 51.4913 170.243 51.085 170.243C50.7299 170.243 50.4189 170.337 50.1518 170.524C49.8876 170.709 49.6816 170.973 49.5339 171.317C49.3862 171.658 49.3123 172.061 49.3123 172.527C49.3123 173.005 49.3848 173.417 49.5297 173.763C49.6745 174.11 49.8791 174.378 50.1433 174.569C50.4103 174.759 50.7243 174.854 51.085 174.854C51.3265 174.854 51.5453 174.81 51.7413 174.722C51.9402 174.631 52.1064 174.502 52.2399 174.334C52.3762 174.167 52.4714 173.965 52.5254 173.729H53.7654C53.72 174.152 53.5822 174.53 53.3521 174.863C53.122 175.195 52.8137 175.456 52.4274 175.647C52.0439 175.837 51.5936 175.932 51.0765 175.932ZM57.8851 175.932C57.2715 175.932 56.736 175.792 56.2786 175.51C55.8212 175.229 55.4661 174.836 55.2132 174.33C54.9604 173.824 54.834 173.233 54.834 172.557C54.834 171.878 54.9604 171.284 55.2132 170.776C55.4661 170.267 55.8212 169.872 56.2786 169.591C56.736 169.31 57.2715 169.169 57.8851 169.169C58.4988 169.169 59.0343 169.31 59.4917 169.591C59.949 169.872 60.3042 170.267 60.557 170.776C60.8098 171.284 60.9363 171.878 60.9363 172.557C60.9363 173.233 60.8098 173.824 60.557 174.33C60.3042 174.836 59.949 175.229 59.4917 175.51C59.0343 175.792 58.4988 175.932 57.8851 175.932ZM57.8894 174.863C58.2871 174.863 58.6167 174.757 58.878 174.547C59.1394 174.337 59.3326 174.057 59.4576 173.708C59.5854 173.358 59.6493 172.973 59.6493 172.553C59.6493 172.135 59.5854 171.752 59.4576 171.402C59.3326 171.05 59.1394 170.767 58.878 170.554C58.6167 170.341 58.2871 170.235 57.8894 170.235C57.4888 170.235 57.1564 170.341 56.8922 170.554C56.6309 170.767 56.4363 171.05 56.3084 171.402C56.1834 171.752 56.1209 172.135 56.1209 172.553C56.1209 172.973 56.1834 173.358 56.3084 173.708C56.4363 174.057 56.6309 174.337 56.8922 174.547C57.1564 174.757 57.4888 174.863 57.8894 174.863ZM63.6326 171.914V175.8H62.3585V169.255H63.5815V170.32H63.6625C63.813 169.973 64.0488 169.695 64.3699 169.485C64.6937 169.274 65.1014 169.169 65.5929 169.169C66.0389 169.169 66.4295 169.263 66.7647 169.451C67.1 169.635 67.3599 169.911 67.5446 170.277C67.7292 170.644 67.8216 171.097 67.8216 171.637V175.8H66.5474V171.79C66.5474 171.316 66.4238 170.945 66.1767 170.678C65.9295 170.408 65.59 170.273 65.1582 170.273C64.8627 170.273 64.6 170.337 64.3699 170.465C64.1426 170.593 63.9622 170.78 63.8287 171.027C63.698 171.272 63.6326 171.567 63.6326 171.914ZM74.4352 170.853L73.2804 171.057C73.2321 170.909 73.1554 170.769 73.0502 170.635C72.948 170.502 72.8088 170.392 72.6326 170.307C72.4565 170.222 72.2363 170.179 71.9721 170.179C71.6113 170.179 71.3102 170.26 71.0687 170.422C70.8272 170.581 70.7065 170.787 70.7065 171.04C70.7065 171.259 70.7875 171.435 70.9494 171.569C71.1113 171.702 71.3727 171.811 71.7335 171.897L72.7733 172.135C73.3755 172.274 73.8244 172.489 74.1199 172.779C74.4153 173.069 74.563 173.445 74.563 173.908C74.563 174.3 74.4494 174.649 74.2221 174.956C73.9977 175.26 73.6838 175.499 73.2804 175.672C72.8798 175.846 72.4153 175.932 71.8869 175.932C71.1539 175.932 70.5559 175.776 70.0929 175.463C69.6298 175.148 69.3457 174.701 69.2406 174.121L70.4721 173.934C70.5488 174.255 70.7065 174.497 70.9451 174.662C71.1838 174.824 71.4949 174.905 71.8784 174.905C72.296 174.905 72.6298 174.819 72.8798 174.645C73.1298 174.469 73.2548 174.255 73.2548 174.002C73.2548 173.797 73.1781 173.625 73.0247 173.486C72.8741 173.347 72.6426 173.242 72.3301 173.171L71.2221 172.928C70.6113 172.789 70.1596 172.567 69.867 172.263C69.5772 171.959 69.4324 171.574 69.4324 171.108C69.4324 170.722 69.5403 170.384 69.7562 170.094C69.9721 169.804 70.2704 169.578 70.6511 169.417C71.0318 169.252 71.4679 169.169 71.9593 169.169C72.6667 169.169 73.2235 169.323 73.6298 169.63C74.036 169.934 74.3045 170.341 74.4352 170.853ZM78.785 175.932C78.1401 175.932 77.5847 175.794 77.1188 175.519C76.6557 175.24 76.2978 174.85 76.0449 174.347C75.7949 173.841 75.6699 173.249 75.6699 172.57C75.6699 171.899 75.7949 171.309 76.0449 170.797C76.2978 170.286 76.65 169.887 77.1017 169.6C77.5563 169.313 78.0875 169.169 78.6955 169.169C79.0648 169.169 79.4228 169.23 79.7694 169.353C80.1159 169.475 80.427 169.667 80.7026 169.928C80.9782 170.189 81.1955 170.529 81.3546 170.946C81.5137 171.361 81.5932 171.865 81.5932 172.459V172.911H76.3901V171.956H80.3446C80.3446 171.621 80.2765 171.324 80.1401 171.066C80.0037 170.804 79.812 170.598 79.5648 170.448C79.3205 170.297 79.0336 170.222 78.704 170.222C78.3461 170.222 78.0336 170.31 77.7665 170.486C77.5023 170.659 77.2978 170.887 77.1529 171.168C77.0108 171.446 76.9398 171.749 76.9398 172.076V172.821C76.9398 173.259 77.0165 173.631 77.1699 173.938C77.3262 174.245 77.5435 174.479 77.8219 174.641C78.1003 174.8 78.4256 174.88 78.7978 174.88C79.0392 174.88 79.2594 174.846 79.4583 174.777C79.6571 174.706 79.829 174.601 79.9739 174.462C80.1188 174.323 80.2296 174.151 80.3063 173.946L81.5123 174.164C81.4157 174.519 81.2424 174.83 80.9924 175.097C80.7452 175.361 80.4341 175.567 80.0591 175.715C79.687 175.86 79.2623 175.932 78.785 175.932ZM85.764 175.932C85.1305 175.932 84.585 175.789 84.1277 175.502C83.6731 175.212 83.3237 174.813 83.0794 174.304C82.835 173.796 82.7129 173.213 82.7129 172.557C82.7129 171.892 82.8379 171.306 83.0879 170.797C83.3379 170.286 83.6902 169.887 84.1447 169.6C84.5993 169.313 85.1348 169.169 85.7512 169.169C86.2484 169.169 86.6916 169.262 87.0808 169.446C87.47 169.628 87.7839 169.884 88.0225 170.213C88.264 170.543 88.4075 170.928 88.4529 171.368H87.2129C87.1447 171.061 86.9885 170.797 86.7441 170.576C86.5027 170.354 86.1788 170.243 85.7725 170.243C85.4174 170.243 85.1064 170.337 84.8393 170.524C84.5751 170.709 84.3691 170.973 84.2214 171.317C84.0737 171.658 83.9998 172.061 83.9998 172.527C83.9998 173.005 84.0723 173.417 84.2172 173.763C84.362 174.11 84.5666 174.378 84.8308 174.569C85.0978 174.759 85.4118 174.854 85.7725 174.854C86.014 174.854 86.2328 174.81 86.4288 174.722C86.6277 174.631 86.7939 174.502 86.9274 174.334C87.0637 174.167 87.1589 173.965 87.2129 173.729H88.4529C88.4075 174.152 88.2697 174.53 88.0396 174.863C87.8095 175.195 87.5012 175.456 87.1149 175.647C86.7314 175.837 86.2811 175.932 85.764 175.932ZM92.8709 169.255V170.277H89.2956V169.255H92.8709ZM90.2544 167.686H91.5286V173.878C91.5286 174.125 91.5655 174.311 91.6394 174.436C91.7132 174.559 91.8084 174.642 91.9249 174.688C92.0442 174.73 92.1735 174.752 92.3127 174.752C92.415 174.752 92.5044 174.745 92.5811 174.73C92.6578 174.716 92.7175 174.705 92.7601 174.696L92.9902 175.749C92.9164 175.777 92.8113 175.806 92.6749 175.834C92.5385 175.865 92.3681 175.882 92.1635 175.885C91.8283 175.891 91.5158 175.831 91.226 175.706C90.9363 175.581 90.7019 175.388 90.5229 175.127C90.3439 174.865 90.2544 174.537 90.2544 174.142V167.686ZM97.0311 175.932C96.3862 175.932 95.8308 175.794 95.3649 175.519C94.9018 175.24 94.5439 174.85 94.291 174.347C94.041 173.841 93.916 173.249 93.916 172.57C93.916 171.899 94.041 171.309 94.291 170.797C94.5439 170.286 94.8961 169.887 95.3478 169.6C95.8024 169.313 96.3336 169.169 96.9416 169.169C97.3109 169.169 97.6689 169.23 98.0154 169.353C98.362 169.475 98.6731 169.667 98.9487 169.928C99.2243 170.189 99.4416 170.529 99.6007 170.946C99.7598 171.361 99.8393 171.865 99.8393 172.459V172.911H94.6362V171.956H98.5907C98.5907 171.621 98.5225 171.324 98.3862 171.066C98.2498 170.804 98.0581 170.598 97.8109 170.448C97.5666 170.297 97.2797 170.222 96.9501 170.222C96.5922 170.222 96.2797 170.31 96.0126 170.486C95.7484 170.659 95.5439 170.887 95.399 171.168C95.2569 171.446 95.1859 171.749 95.1859 172.076V172.821C95.1859 173.259 95.2626 173.631 95.416 173.938C95.5723 174.245 95.7896 174.479 96.068 174.641C96.3464 174.8 96.6717 174.88 97.0439 174.88C97.2853 174.88 97.5055 174.846 97.7044 174.777C97.9032 174.706 98.0751 174.601 98.22 174.462C98.3649 174.323 98.4757 174.151 98.5524 173.946L99.7583 174.164C99.6618 174.519 99.4885 174.83 99.2385 175.097C98.9913 175.361 98.6802 175.567 98.3052 175.715C97.9331 175.86 97.5083 175.932 97.0311 175.932ZM104.308 169.255V170.277H100.733V169.255H104.308ZM101.692 167.686H102.966V173.878C102.966 174.125 103.003 174.311 103.077 174.436C103.151 174.559 103.246 174.642 103.362 174.688C103.482 174.73 103.611 174.752 103.75 174.752C103.852 174.752 103.942 174.745 104.019 174.73C104.095 174.716 104.155 174.705 104.198 174.696L104.428 175.749C104.354 175.777 104.249 175.806 104.112 175.834C103.976 175.865 103.806 175.882 103.601 175.885C103.266 175.891 102.953 175.831 102.664 175.706C102.374 175.581 102.139 175.388 101.96 175.127C101.781 174.865 101.692 174.537 101.692 174.142V167.686ZM109.864 173.086V169.255H111.143V175.8H109.89V174.667H109.822C109.671 175.016 109.43 175.307 109.097 175.54C108.768 175.77 108.357 175.885 107.866 175.885C107.445 175.885 107.073 175.793 106.749 175.608C106.428 175.421 106.175 175.144 105.991 174.777C105.809 174.411 105.718 173.958 105.718 173.418V169.255H106.992V173.265C106.992 173.711 107.116 174.066 107.363 174.33C107.61 174.594 107.931 174.726 108.326 174.726C108.564 174.726 108.802 174.667 109.037 174.547C109.276 174.428 109.474 174.247 109.63 174.006C109.789 173.765 109.867 173.458 109.864 173.086ZM112.855 175.8V169.255H114.086V170.294H114.154C114.274 169.942 114.484 169.665 114.785 169.463C115.089 169.259 115.433 169.157 115.816 169.157C115.896 169.157 115.99 169.159 116.097 169.165C116.208 169.171 116.295 169.178 116.357 169.186V170.405C116.306 170.391 116.215 170.375 116.085 170.358C115.954 170.338 115.823 170.328 115.693 170.328C115.392 170.328 115.123 170.392 114.887 170.52C114.654 170.645 114.47 170.82 114.333 171.044C114.197 171.266 114.129 171.519 114.129 171.803V175.8H112.855ZM118.368 174.607L118.304 175.071C118.261 175.412 118.189 175.767 118.086 176.137C117.987 176.509 117.883 176.854 117.775 177.172C117.67 177.49 117.584 177.743 117.515 177.931H116.612C116.649 177.755 116.7 177.516 116.765 177.215C116.831 176.917 116.895 176.583 116.957 176.213C117.02 175.844 117.067 175.468 117.098 175.084L117.14 174.607H118.368ZM125.107 175.945C124.692 175.945 124.317 175.868 123.982 175.715C123.647 175.559 123.381 175.333 123.185 175.037C122.992 174.742 122.895 174.38 122.895 173.951C122.895 173.581 122.966 173.277 123.108 173.039C123.251 172.8 123.442 172.611 123.684 172.472C123.925 172.333 124.195 172.228 124.493 172.157C124.792 172.086 125.096 172.032 125.405 171.995C125.797 171.949 126.116 171.912 126.36 171.884C126.604 171.853 126.782 171.803 126.893 171.735C127.003 171.667 127.059 171.556 127.059 171.402V171.372C127.059 171 126.954 170.712 126.743 170.507C126.536 170.303 126.226 170.201 125.814 170.201C125.385 170.201 125.047 170.296 124.8 170.486C124.556 170.674 124.387 170.882 124.293 171.113L123.096 170.84C123.238 170.442 123.445 170.121 123.718 169.877C123.993 169.63 124.31 169.451 124.668 169.34C125.026 169.226 125.403 169.169 125.797 169.169C126.059 169.169 126.336 169.201 126.628 169.263C126.924 169.323 127.199 169.434 127.455 169.596C127.714 169.757 127.925 169.989 128.09 170.29C128.255 170.588 128.337 170.976 128.337 171.453V175.8H127.093V174.905H127.042C126.959 175.07 126.836 175.232 126.671 175.391C126.506 175.55 126.295 175.682 126.036 175.787C125.778 175.892 125.468 175.945 125.107 175.945ZM125.384 174.922C125.736 174.922 126.037 174.853 126.287 174.713C126.54 174.574 126.732 174.392 126.863 174.168C126.996 173.941 127.063 173.698 127.063 173.439V172.596C127.018 172.641 126.93 172.684 126.799 172.723C126.671 172.76 126.525 172.793 126.36 172.821C126.195 172.847 126.035 172.871 125.878 172.894C125.722 172.914 125.591 172.931 125.486 172.945C125.239 172.976 125.013 173.029 124.809 173.103C124.607 173.176 124.445 173.283 124.323 173.422C124.204 173.559 124.144 173.74 124.144 173.968C124.144 174.283 124.26 174.522 124.493 174.684C124.726 174.843 125.023 174.922 125.384 174.922ZM132.485 175.928C131.956 175.928 131.485 175.793 131.07 175.523C130.658 175.25 130.334 174.863 130.098 174.36C129.865 173.854 129.749 173.247 129.749 172.54C129.749 171.833 129.867 171.228 130.102 170.725C130.341 170.222 130.668 169.837 131.083 169.57C131.497 169.303 131.968 169.169 132.493 169.169C132.899 169.169 133.226 169.238 133.473 169.374C133.723 169.507 133.916 169.664 134.053 169.843C134.192 170.022 134.3 170.179 134.377 170.316H134.453V167.073H135.727V175.8H134.483V174.782H134.377C134.3 174.921 134.189 175.08 134.044 175.259C133.902 175.438 133.706 175.594 133.456 175.728C133.206 175.861 132.882 175.928 132.485 175.928ZM132.766 174.841C133.132 174.841 133.442 174.745 133.695 174.551C133.95 174.355 134.144 174.084 134.274 173.738C134.408 173.391 134.475 172.988 134.475 172.527C134.475 172.073 134.409 171.675 134.279 171.334C134.148 170.993 133.956 170.728 133.703 170.537C133.45 170.347 133.138 170.252 132.766 170.252C132.382 170.252 132.063 170.351 131.807 170.55C131.551 170.749 131.358 171.02 131.227 171.364C131.1 171.708 131.036 172.096 131.036 172.527C131.036 172.965 131.101 173.358 131.232 173.708C131.362 174.057 131.556 174.334 131.811 174.539C132.07 174.74 132.388 174.841 132.766 174.841ZM137.546 175.8V169.255H138.82V175.8H137.546ZM138.189 168.245C137.968 168.245 137.778 168.171 137.618 168.023C137.462 167.872 137.384 167.694 137.384 167.486C137.384 167.276 137.462 167.097 137.618 166.949C137.778 166.799 137.968 166.723 138.189 166.723C138.411 166.723 138.6 166.799 138.756 166.949C138.915 167.097 138.995 167.276 138.995 167.486C138.995 167.694 138.915 167.872 138.756 168.023C138.6 168.171 138.411 168.245 138.189 168.245ZM140.534 178.255V169.255H141.779V170.316H141.885C141.959 170.179 142.066 170.022 142.205 169.843C142.344 169.664 142.537 169.507 142.784 169.374C143.031 169.238 143.358 169.169 143.764 169.169C144.293 169.169 144.764 169.303 145.179 169.57C145.594 169.837 145.919 170.222 146.155 170.725C146.394 171.228 146.513 171.833 146.513 172.54C146.513 173.247 146.395 173.854 146.159 174.36C145.923 174.863 145.6 175.25 145.188 175.523C144.776 175.793 144.306 175.928 143.777 175.928C143.379 175.928 143.054 175.861 142.801 175.728C142.551 175.594 142.355 175.438 142.213 175.259C142.071 175.08 141.962 174.921 141.885 174.782H141.808V178.255H140.534ZM141.783 172.527C141.783 172.988 141.85 173.391 141.983 173.738C142.117 174.084 142.31 174.355 142.563 174.551C142.816 174.745 143.125 174.841 143.492 174.841C143.872 174.841 144.191 174.74 144.446 174.539C144.702 174.334 144.895 174.057 145.026 173.708C145.159 173.358 145.226 172.965 145.226 172.527C145.226 172.096 145.161 171.708 145.03 171.364C144.902 171.02 144.709 170.749 144.45 170.55C144.195 170.351 143.875 170.252 143.492 170.252C143.122 170.252 142.81 170.347 142.554 170.537C142.301 170.728 142.11 170.993 141.979 171.334C141.848 171.675 141.783 172.073 141.783 172.527ZM147.941 175.8V169.255H149.215V175.8H147.941ZM148.584 168.245C148.362 168.245 148.172 168.171 148.013 168.023C147.857 167.872 147.779 167.694 147.779 167.486C147.779 167.276 147.857 167.097 148.013 166.949C148.172 166.799 148.362 166.723 148.584 166.723C148.806 166.723 148.994 166.799 149.151 166.949C149.31 167.097 149.389 167.276 149.389 167.486C149.389 167.694 149.31 167.872 149.151 168.023C148.994 168.171 148.806 168.245 148.584 168.245ZM155.834 170.853L154.679 171.057C154.631 170.909 154.554 170.769 154.449 170.635C154.346 170.502 154.207 170.392 154.031 170.307C153.855 170.222 153.635 170.179 153.371 170.179C153.01 170.179 152.709 170.26 152.467 170.422C152.226 170.581 152.105 170.787 152.105 171.04C152.105 171.259 152.186 171.435 152.348 171.569C152.51 171.702 152.771 171.811 153.132 171.897L154.172 172.135C154.774 172.274 155.223 172.489 155.518 172.779C155.814 173.069 155.961 173.445 155.961 173.908C155.961 174.3 155.848 174.649 155.621 174.956C155.396 175.26 155.082 175.499 154.679 175.672C154.278 175.846 153.814 175.932 153.285 175.932C152.552 175.932 151.954 175.776 151.491 175.463C151.028 175.148 150.744 174.701 150.639 174.121L151.871 173.934C151.947 174.255 152.105 174.497 152.344 174.662C152.582 174.824 152.893 174.905 153.277 174.905C153.694 174.905 154.028 174.819 154.278 174.645C154.528 174.469 154.653 174.255 154.653 174.002C154.653 173.797 154.577 173.625 154.423 173.486C154.273 173.347 154.041 173.242 153.729 173.171L152.621 172.928C152.01 172.789 151.558 172.567 151.265 172.263C150.976 171.959 150.831 171.574 150.831 171.108C150.831 170.722 150.939 170.384 151.155 170.094C151.371 169.804 151.669 169.578 152.05 169.417C152.43 169.252 152.866 169.169 153.358 169.169C154.065 169.169 154.622 169.323 155.028 169.63C155.434 169.934 155.703 170.341 155.834 170.853ZM160.119 175.932C159.486 175.932 158.941 175.789 158.483 175.502C158.029 175.212 157.679 174.813 157.435 174.304C157.191 173.796 157.068 173.213 157.068 172.557C157.068 171.892 157.193 171.306 157.443 170.797C157.693 170.286 158.046 169.887 158.5 169.6C158.955 169.313 159.49 169.169 160.107 169.169C160.604 169.169 161.047 169.262 161.436 169.446C161.825 169.628 162.139 169.884 162.378 170.213C162.619 170.543 162.763 170.928 162.808 171.368H161.568C161.5 171.061 161.344 170.797 161.1 170.576C160.858 170.354 160.534 170.243 160.128 170.243C159.773 170.243 159.462 170.337 159.195 170.524C158.931 170.709 158.725 170.973 158.577 171.317C158.429 171.658 158.355 172.061 158.355 172.527C158.355 173.005 158.428 173.417 158.573 173.763C158.718 174.11 158.922 174.378 159.186 174.569C159.453 174.759 159.767 174.854 160.128 174.854C160.369 174.854 160.588 174.81 160.784 174.722C160.983 174.631 161.149 174.502 161.283 174.334C161.419 174.167 161.514 173.965 161.568 173.729H162.808C162.763 174.152 162.625 174.53 162.395 174.863C162.165 175.195 161.857 175.456 161.47 175.647C161.087 175.837 160.637 175.932 160.119 175.932ZM164.171 175.8V169.255H165.445V175.8H164.171ZM164.814 168.245C164.593 168.245 164.403 168.171 164.243 168.023C164.087 167.872 164.009 167.694 164.009 167.486C164.009 167.276 164.087 167.097 164.243 166.949C164.403 166.799 164.593 166.723 164.814 166.723C165.036 166.723 165.225 166.799 165.381 166.949C165.54 167.097 165.62 167.276 165.62 167.486C165.62 167.694 165.54 167.872 165.381 168.023C165.225 168.171 165.036 168.245 164.814 168.245ZM175.934 169.255L173.561 175.8H172.197L169.819 169.255H171.187L172.845 174.292H172.913L174.567 169.255H175.934ZM179.73 175.932C179.085 175.932 178.53 175.794 178.064 175.519C177.601 175.24 177.243 174.85 176.99 174.347C176.74 173.841 176.615 173.249 176.615 172.57C176.615 171.899 176.74 171.309 176.99 170.797C177.243 170.286 177.595 169.887 178.047 169.6C178.502 169.313 179.033 169.169 179.641 169.169C180.01 169.169 180.368 169.23 180.715 169.353C181.061 169.475 181.372 169.667 181.648 169.928C181.923 170.189 182.141 170.529 182.3 170.946C182.459 171.361 182.539 171.865 182.539 172.459V172.911H177.335V171.956H181.29C181.29 171.621 181.222 171.324 181.085 171.066C180.949 170.804 180.757 170.598 180.51 170.448C180.266 170.297 179.979 170.222 179.649 170.222C179.291 170.222 178.979 170.31 178.712 170.486C178.448 170.659 178.243 170.887 178.098 171.168C177.956 171.446 177.885 171.749 177.885 172.076V172.821C177.885 173.259 177.962 173.631 178.115 173.938C178.271 174.245 178.489 174.479 178.767 174.641C179.046 174.8 179.371 174.88 179.743 174.88C179.985 174.88 180.205 174.846 180.404 174.777C180.602 174.706 180.774 174.601 180.919 174.462C181.064 174.323 181.175 174.151 181.252 173.946L182.458 174.164C182.361 174.519 182.188 174.83 181.938 175.097C181.691 175.361 181.379 175.567 181.004 175.715C180.632 175.86 180.208 175.932 179.73 175.932ZM185.226 167.073V175.8H183.952V167.073H185.226ZM186.941 175.8V169.255H188.215V175.8H186.941ZM187.584 168.245C187.362 168.245 187.172 168.171 187.013 168.023C186.857 167.872 186.779 167.694 186.779 167.486C186.779 167.276 186.857 167.097 187.013 166.949C187.172 166.799 187.362 166.723 187.584 166.723C187.806 166.723 187.994 166.799 188.151 166.949C188.31 167.097 188.389 167.276 188.389 167.486C188.389 167.694 188.31 167.872 188.151 168.023C187.994 168.171 187.806 168.245 187.584 168.245ZM192.984 169.255V170.277H189.409V169.255H192.984ZM190.368 167.686H191.642V173.878C191.642 174.125 191.679 174.311 191.753 174.436C191.827 174.559 191.922 174.642 192.038 174.688C192.157 174.73 192.287 174.752 192.426 174.752C192.528 174.752 192.618 174.745 192.694 174.73C192.771 174.716 192.831 174.705 192.873 174.696L193.104 175.749C193.03 175.777 192.925 175.806 192.788 175.834C192.652 175.865 192.481 175.882 192.277 175.885C191.942 175.891 191.629 175.831 191.339 175.706C191.05 175.581 190.815 175.388 190.636 175.127C190.457 174.865 190.368 174.537 190.368 174.142V167.686Z" fill="#068181"/>
<path d="M40 245.123C40 236.839 46.7157 230.123 55 230.123H186C194.284 230.123 201 236.839 201 245.123V258.005C201 266.289 194.284 273.005 186 273.005H55C46.7157 273.005 40 266.289 40 258.005V245.123Z" fill="#D9F4FF"/>
<path d="M83.6882 249.825H80.8885C80.8374 249.463 80.733 249.141 80.5753 248.86C80.4176 248.574 80.2152 248.332 79.968 248.131C79.7209 247.931 79.4354 247.778 79.1115 247.671C78.7919 247.565 78.4446 247.511 78.0696 247.511C77.392 247.511 76.8018 247.68 76.299 248.016C75.7962 248.349 75.4062 248.834 75.1293 249.474C74.8523 250.109 74.7138 250.88 74.7138 251.788C74.7138 252.721 74.8523 253.505 75.1293 254.14C75.4105 254.775 75.8026 255.254 76.3054 255.578C76.8082 255.902 77.3899 256.064 78.0504 256.064C78.4212 256.064 78.7642 256.015 79.0795 255.917C79.3991 255.819 79.6825 255.676 79.9297 255.489C80.1768 255.297 80.3814 255.065 80.5433 254.792C80.7095 254.519 80.8246 254.208 80.8885 253.859L83.6882 253.871C83.6158 254.472 83.4347 255.052 83.1449 255.61C82.8594 256.164 82.4737 256.66 81.9879 257.099C81.5064 257.534 80.9311 257.879 80.2621 258.135C79.5973 258.386 78.8452 258.512 78.0057 258.512C76.8381 258.512 75.794 258.248 74.8736 257.719C73.9574 257.191 73.233 256.426 72.7003 255.425C72.1719 254.423 71.9077 253.211 71.9077 251.788C71.9077 250.36 72.1761 249.146 72.7131 248.144C73.25 247.143 73.9787 246.38 74.8991 245.856C75.8196 245.327 76.8551 245.063 78.0057 245.063C78.7642 245.063 79.4673 245.17 80.1151 245.383C80.767 245.596 81.3445 245.907 81.8473 246.316C82.3501 246.721 82.7592 247.217 83.0746 247.805C83.3942 248.393 83.5987 249.067 83.6882 249.825Z" fill="#016170"/>
<path d="M87.6832 258.333H84.7173L89.2365 245.242H92.8033L97.3161 258.333H94.3501L91.071 248.234H90.9688L87.6832 258.333ZM87.4979 253.187H94.5036V255.348H87.4979V253.187Z" fill="#016170"/>
<path d="M98.8917 258.333V245.242H101.659V256.051H107.272V258.333H98.8917Z" fill="#016170"/>
<path d="M109.105 258.333V245.242H111.872V256.051H117.485V258.333H109.105Z" fill="#016170"/>
<path d="M131.569 245.242H134.337V253.744C134.337 254.698 134.109 255.533 133.653 256.249C133.202 256.965 132.569 257.523 131.755 257.924C130.941 258.32 129.993 258.518 128.91 258.518C127.824 258.518 126.873 258.32 126.059 257.924C125.246 257.523 124.613 256.965 124.161 256.249C123.709 255.533 123.483 254.698 123.483 253.744V245.242H126.251V253.507C126.251 254.006 126.36 254.449 126.577 254.837C126.799 255.224 127.11 255.529 127.51 255.751C127.911 255.972 128.378 256.083 128.91 256.083C129.447 256.083 129.914 255.972 130.31 255.751C130.711 255.529 131.02 255.224 131.237 254.837C131.459 254.449 131.569 254.006 131.569 253.507V245.242Z" fill="#016170"/>
<path d="M143.716 249.007C143.665 248.491 143.445 248.091 143.058 247.805C142.67 247.52 142.143 247.377 141.479 247.377C141.027 247.377 140.646 247.441 140.335 247.569C140.023 247.692 139.785 247.865 139.619 248.087C139.457 248.308 139.376 248.56 139.376 248.841C139.367 249.075 139.416 249.28 139.523 249.454C139.634 249.629 139.785 249.78 139.977 249.908C140.168 250.032 140.39 250.141 140.641 250.234C140.893 250.324 141.161 250.4 141.447 250.464L142.623 250.746C143.194 250.873 143.718 251.044 144.195 251.257C144.673 251.47 145.086 251.732 145.435 252.043C145.785 252.354 146.055 252.721 146.247 253.143C146.443 253.565 146.543 254.048 146.548 254.594C146.543 255.395 146.339 256.089 145.934 256.677C145.533 257.261 144.954 257.715 144.195 258.039C143.441 258.359 142.531 258.518 141.466 258.518C140.409 258.518 139.489 258.356 138.705 258.033C137.925 257.709 137.315 257.229 136.876 256.594C136.442 255.955 136.214 255.165 136.192 254.223H138.871C138.901 254.662 139.026 255.028 139.248 255.322C139.474 255.612 139.774 255.832 140.149 255.981C140.528 256.126 140.957 256.198 141.434 256.198C141.903 256.198 142.31 256.13 142.655 255.994C143.004 255.857 143.275 255.668 143.467 255.425C143.658 255.182 143.754 254.903 143.754 254.587C143.754 254.293 143.667 254.046 143.492 253.846C143.322 253.646 143.07 253.475 142.738 253.334C142.41 253.194 142.007 253.066 141.53 252.951L140.104 252.593C139.001 252.324 138.129 251.905 137.49 251.334C136.851 250.763 136.533 249.994 136.538 249.026C136.533 248.234 136.744 247.541 137.17 246.949C137.601 246.356 138.191 245.894 138.941 245.562C139.691 245.229 140.543 245.063 141.498 245.063C142.469 245.063 143.317 245.229 144.042 245.562C144.771 245.894 145.337 246.356 145.742 246.949C146.147 247.541 146.356 248.227 146.369 249.007H143.716Z" fill="#016170"/>
</g>
<defs>
<filter id="filter0_d_6_172" x="57" y="-14.161" width="130" height="131.05" filterUnits="userSpaceOnUse" color-interpolation-filters="sRGB">
<feFlood flood-opacity="0" result="BackgroundImageFix"/>
<feColorMatrix in="SourceAlpha" type="matrix" values="0 0 0 0 0 0 0 0 0 0 0 0 0 0 0 0 0 0 127 0" result="hardAlpha"/>
<feOffset dy="4"/>
<feGaussianBlur stdDeviation="20"/>
<feComposite in2="hardAlpha" operator="out"/>
<feColorMatrix type="matrix" values="0 0 0 0 0 0 0 0 0 0 0 0 0 0 0 0 0 0 0.25 0"/>
<feBlend mode="normal" in2="BackgroundImageFix" result="effect1_dropShadow_6_172"/>
<feBlend mode="normal" in="SourceGraphic" in2="effect1_dropShadow_6_172" result="shape"/>
</filter>
</defs>
</svg>
